M48
; DRILL file {KiCad 7.0.10} date Friday, April 12, 2024 at 10:08:05 PM
; FORMAT={-:-/ absolute / inch / decimal}
; #@! TF.CreationDate,2024-04-12T22:08:05+02:00
; #@! TF.GenerationSoftware,Kicad,Pcbnew,7.0.10
; #@! TF.FileFunction,Plated,1,2,PTH
FMAT,2
INCH
; #@! TA.AperFunction,Plated,PTH,ViaDrill
T1C0.0157
; #@! TA.AperFunction,Plated,PTH,ComponentDrill
T2C0.0236
; #@! TA.AperFunction,Plated,PTH,ComponentDrill
T3C0.0276
; #@! TA.AperFunction,Plated,PTH,ComponentDrill
T4C0.0315
; #@! TA.AperFunction,Plated,PTH,ComponentDrill
T5C0.0354
; #@! TA.AperFunction,Plated,PTH,ComponentDrill
T6C0.0394
; #@! TA.AperFunction,Plated,PTH,ComponentDrill
T7C0.0433
%
G90
G05
T1
X5.1874Y-2.4673
X5.2126Y-1.8524
X5.2244Y-3.6122
X5.2283Y-2.9803
X5.255Y-1.8917
X5.2913Y-3.5492
X5.3098Y-3.2409
X5.31Y-2.76
X5.3373Y-3.8913
X5.3504Y-2.1594
X5.372Y-4.4055
X5.3989Y-2.48
X5.4173Y-3.9313
X5.445Y-5.005
X5.4665Y-4.3661
X5.4705Y-4.6654
X5.4912Y-1.6822
X5.5161Y-2.4917
X5.5685Y-1.6476
X5.5748Y-3.5807
X5.5846Y-3.2894
X5.5892Y-2.735
X5.6073Y-3.8713
X5.6098Y-2.1646
X5.63Y-4.54
X5.6327Y-4.7181
X5.6339Y-4.2028
X5.6369Y-2.0059
X5.6453Y-3.0614
X5.6457Y-4.124
X5.6575Y-3.6201
X5.7Y-4.59
X5.7037Y-2.3848
X5.7417Y-2.8539
X5.743Y-3.101
X5.8268Y-1.8819
X5.8689Y-2.4358
X5.9882Y-4.9537
X5.99Y-4.61
X6.0098Y-4.06
X6.0551Y-1.6004
X6.082Y-5.18
X6.085Y-4.38
X6.09Y-4.52
X6.0917Y-3.1925
X6.11Y-4.81
X6.13Y-5.11
X6.15Y-4.322
X6.2211Y-5.2818
X6.31Y-5.325
X6.36Y-4.96
X6.3898Y-4.165
X6.4067Y-3.465
X6.4232Y-3.1831
X6.5244Y-2.3492
X6.63Y-5.361
X6.6969Y-3.0807
X6.7972Y-3.2461
X6.7982Y-3.4469
X6.8185Y-3.0984
X7.0591Y-2.1594
X7.0591Y-2.4626
X7.0591Y-2.7382
X7.0591Y-3.0138
X7.0591Y-3.2933
X7.0591Y-3.5768
X7.063Y-3.7224
X7.0748Y-4.6614
X7.0906Y-1.7126
X7.0915Y-2.4252
X7.0925Y-2.1201
X7.0935Y-2.9774
X7.0935Y-3.2549
X7.0945Y-2.7018
X7.0945Y-3.5384
X7.0984Y-3.6909
X7.1073Y-3.937
X7.125Y-2.3996
X7.1319Y-2.9518
X7.1339Y-1.7402
X7.1339Y-2.0935
X7.1378Y-2.6762
X7.1378Y-3.5118
X7.1378Y-3.6634
X7.1388Y-3.2283
X7.1575Y-4.6516
X7.1654Y-4.0098
X7.17Y-4.84
X7.1732Y-1.7972
X7.1752Y-3.7008
X7.1801Y-4.3927
X7.1831Y-4.9409
X7.189Y-1.565
X7.2087Y-4.0654
X7.2273Y-3.4569
X7.2274Y-3.1843
X7.2283Y-2.6299
X7.2283Y-2.8996
X7.2362Y-2.3157
X7.2402Y-4.7933
X7.2469Y-4.1217
X7.2913Y-5.0906
X7.2929Y-3.4142
X7.2933Y-3.7413
X7.2982Y-5.2264
X7.2996Y-2.9539
X7.3033Y-4.8593
X7.315Y-2.685
X7.315Y-3.2362
X7.3173Y-4.3313
X7.3209Y-4.9291
X7.3465Y-2.3189
X7.3665Y-3.5236
X7.3701Y-3.2364
X7.372Y-2.9157
X7.378Y-4.8583
X7.3976Y-2.1004
X7.3976Y-4.5512
X7.3984Y-2.6303
X7.4016Y-2.3189
X7.4153Y-1.9573
X7.4343Y-4.3307
X7.4573Y-3.7613
X7.4945Y-4.0173
X7.4992Y-4.589
X7.5Y-4.4419
X7.502Y-5.2894
X7.5079Y-2.5925
X7.5106Y-2.9587
X7.5122Y-2.7583
X7.5134Y-3.5449
X7.5154Y-3.7736
X7.5167Y-3.1467
X7.5177Y-3.9173
X7.5181Y-2.5193
X7.5197Y-3.3878
X7.5213Y-2.0633
X7.537Y-5.128
X7.5373Y-4.6713
X7.5551Y-3.6791
X7.5587Y-2.6803
X7.5591Y-5.3917
X7.5616Y-2.4134
X7.5866Y-3.002
X7.6049Y-4.9226
X7.6102Y-2.1762
X7.6102Y-2.828
X7.6104Y-2.2567
X7.613Y-2.3831
X7.6161Y-3.2628
X7.622Y-2.1161
X7.626Y-3.6437
X7.6276Y-1.7673
X7.6305Y-4.6746
X7.6378Y-1.5512
X7.6535Y-3.8543
X7.6547Y-3.0764
X7.6575Y-4.7815
X7.6585Y-3.1781
X7.6654Y-2.4469
X7.6654Y-2.9587
X7.6654Y-4.3189
X7.6732Y-2.5925
X7.6821Y-4.2146
X7.6882Y-2.698
X7.6904Y-1.9313
X7.7146Y-4.25
X7.7319Y-3.0788
X7.7402Y-2.065
X7.7427Y-4.8583
X7.7618Y-1.5512
X7.7713Y-3.7313
X7.79Y-4.3163
X7.7949Y-4.6701
X7.7973Y-3.6813
X7.7973Y-4.0846
X7.8051Y-3.2654
X7.8102Y-2.7429
X7.8386Y-2.4508
X7.8386Y-4.1161
X7.8661Y-4.2799
X7.8697Y-3.7313
X7.8892Y-1.7947
X7.8898Y-4.2462
X7.8976Y-3.4902
X7.9144Y-3.0778
X7.9173Y-4.0768
X7.9213Y-4.2146
X7.9246Y-4.6707
X7.9252Y-3.1516
X7.9862Y-2.7411
X7.9882Y-2.435
X8.0157Y-4.1594
X8.0157Y-4.3169
X8.0404Y-2.4124
X8.0512Y-4.0295
X8.0614Y-1.5457
X8.063Y-4.7382
X8.0679Y-3.8396
X8.0689Y-3.0364
X8.076Y-2.5098
X8.1142Y-2.7657
X8.128Y-3.8957
X8.1378Y-4.2795
X8.153Y-1.7573
X8.1579Y-2.148
X8.1614Y-4.2462
X8.1929Y-4.2106
X8.1929Y-4.561
X8.2018Y-2.0187
X8.2022Y-1.7563
X8.2091Y-1.5642
X8.2098Y-3.7846
X8.2244Y-2.3555
X8.248Y-4.6713
X8.2508Y-2.4476
X8.252Y-4.3878
X8.2555Y-2.1067
X8.2559Y-2.9902
X8.2904Y-1.9409
X8.2945Y-2.5598
X8.2953Y-2.9646
X8.3228Y-4.3209
X8.3559Y-4.7547
X8.376Y-1.8169
X8.4232Y-4.2795
X8.4498Y-4.247
X8.4508Y-1.8169
X8.4754Y-4.2136
X8.4783Y-4.5472
X8.4783Y-4.7116
X8.5453Y-4.8533
X8.5571Y-1.8169
X8.5571Y-2.0236
X8.5591Y-2.0831
X8.5768Y-5.0276
X8.5778Y-5.3022
X8.5827Y-4.7096
X8.5945Y-1.5374
X8.5945Y-1.7382
X8.6138Y-1.898
X8.6191Y-5.2274
X8.6217Y-1.6195
X8.6232Y-2.435
X8.6752Y-1.4331
X8.6752Y-1.9449
X8.6985Y-2.5663
X8.7224Y-4.2835
X8.7303Y-1.9213
X8.7362Y-4.5846
X8.7372Y-4.5187
X8.7559Y-4.2067
X8.7579Y-4.9496
X8.7858Y-5.2646
X8.7953Y-4.7449
X8.7963Y-5.215
X8.8173Y-4.2613
X8.8189Y-2.7362
X8.8199Y-1.4547
X8.8213Y-1.5736
X8.8213Y-1.8573
X8.8373Y-4.3213
X8.872Y-2.1122
X8.8839Y-1.8858
X8.8957Y-2.4811
X8.9083Y-1.6483
X8.9094Y-2.626
X8.9705Y-5.3031
X8.9724Y-4.7488
X8.977Y-5.2157
X8.9961Y-4.5492
X9.0108Y-4.6348
X9.0138Y-4.8374
X9.0177Y-1.3787
X9.0272Y-1.7697
X9.0295Y-2.0728
X9.0374Y-1.5079
X9.1024Y-1.5846
T2
X8.5571Y-2.9931
X8.5571Y-3.3898
X8.6358Y-2.9931
X8.6358Y-3.3898
T3
X7.1014Y-5.1929
X7.1014Y-5.3343
X7.1015Y-4.0907
X7.1015Y-4.2321
X7.1015Y-4.4549
X7.1015Y-4.5963
X7.1721Y-5.2636
X7.1722Y-4.1614
X7.1722Y-4.5256
X7.7049Y-3.6337
X7.7756Y-3.563
X7.8463Y-3.6337
X8.7718Y-1.2935
X8.7798Y-2.378
X8.8425Y-1.3642
X8.8505Y-2.3072
X8.9132Y-1.2935
X8.9213Y-2.378
T4
X6.5Y-3.3858
X6.6969Y-3.3858
X7.5571Y-4.061
X7.5571Y-4.2579
T5
X5.3278Y-5.0787
X5.4278Y-5.0787
T6
X5.0039Y-1.7421
X5.1024Y-1.7421
X5.2008Y-1.7421
X5.752Y-1.7421
X5.8504Y-1.7421
X5.9488Y-1.7421
X6.2244Y-2.2134
X6.2244Y-2.3134
X6.2244Y-2.4134
X6.2244Y-2.5134
X6.2244Y-2.6134
X6.2244Y-2.7134
X6.2244Y-2.8134
X6.2244Y-2.9134
X6.2244Y-3.0134
X6.2244Y-3.1134
X6.2244Y-3.2134
X6.2244Y-3.3134
X6.2244Y-3.4134
X6.2244Y-3.5134
X6.2244Y-3.6134
X6.2244Y-3.7134
X6.2244Y-3.8134
X6.2244Y-3.9134
X6.2244Y-4.0134
X6.2244Y-4.1134
X6.498Y-3.0075
X6.5Y-1.7421
X6.5Y-4.2707
X6.5Y-4.9203
X6.5965Y-3.0075
X6.5984Y-1.7421
X6.5984Y-4.2707
X6.5984Y-4.9203
X6.6949Y-3.0075
X6.6969Y-1.7421
X6.6969Y-4.2707
X6.6969Y-4.9203
X8.3898Y-2.2134
X8.3898Y-2.3134
X8.3898Y-2.4134
X8.3898Y-2.5134
X8.3898Y-2.6134
X8.3898Y-2.7134
X8.3898Y-2.8134
X8.3898Y-2.9134
X8.3898Y-3.0134
X8.3898Y-3.1134
X8.3898Y-3.2134
X8.3898Y-3.3134
X8.3898Y-3.4134
X8.3898Y-3.5134
X8.3898Y-3.6134
X8.3898Y-3.7134
X8.3898Y-3.8134
X8.3898Y-3.9134
X8.3898Y-4.0134
X8.3898Y-4.1134
X8.8665Y-3.2575
X8.8665Y-3.3575
X8.8665Y-3.4575
X8.8665Y-3.5575
X8.8665Y-3.6575
X8.9665Y-3.2575
X8.9665Y-3.3575
X8.9665Y-3.4575
X8.9665Y-3.5575
X8.9665Y-3.6575
T4
G00X4.9567Y-2.1476
M15
G01X4.9567Y-2.0807
M16
G05
G00X4.9567Y-2.7874
M15
G01X4.9567Y-2.7205
M16
G05
G00X4.9567Y-3.2795
M15
G01X4.9567Y-3.2126
M16
G05
G00X4.9567Y-3.7717
M15
G01X4.9567Y-3.7047
M16
G05
G00X4.9567Y-4.2638
M15
G01X4.9567Y-4.1969
M16
G05
G00X4.9567Y-4.7559
M15
G01X4.9567Y-4.689
M16
G05
G00X4.9567Y-5.248
M15
G01X4.9567Y-5.1811
M16
G05
G00X5.0689Y-1.9764
M15
G01X5.1358Y-1.9764
M16
G05
G00X5.0689Y-2.2913
M15
G01X5.1358Y-2.2913
M16
G05
G00X5.0689Y-2.6161
M15
G01X5.1358Y-2.6161
M16
G05
G00X5.0689Y-2.9311
M15
G01X5.1358Y-2.9311
M16
G05
G00X5.0689Y-3.1083
M15
G01X5.1358Y-3.1083
M16
G05
G00X5.0689Y-3.4232
M15
G01X5.1358Y-3.4232
M16
G05
G00X5.0689Y-3.6004
M15
G01X5.1358Y-3.6004
M16
G05
G00X5.0689Y-3.9154
M15
G01X5.1358Y-3.9154
M16
G05
G00X5.0689Y-4.0925
M15
G01X5.1358Y-4.0925
M16
G05
G00X5.0689Y-4.4075
M15
G01X5.1358Y-4.4075
M16
G05
G00X5.0689Y-4.5846
M15
G01X5.1358Y-4.5846
M16
G05
G00X5.0689Y-4.8996
M15
G01X5.1358Y-4.8996
M16
G05
G00X5.0689Y-5.0768
M15
G01X5.1358Y-5.0768
M16
G05
G00X5.0689Y-5.3917
M15
G01X5.1358Y-5.3917
M16
G05
G00X5.248Y-2.1476
M15
G01X5.248Y-2.0807
M16
G05
G00X5.248Y-2.7874
M15
G01X5.248Y-2.7205
M16
G05
G00X5.248Y-3.2795
M15
G01X5.248Y-3.2126
M16
G05
G00X5.248Y-3.7717
M15
G01X5.248Y-3.7047
M16
G05
G00X5.248Y-4.2638
M15
G01X5.248Y-4.1969
M16
G05
G00X5.248Y-4.7559
M15
G01X5.248Y-4.689
M16
G05
G00X5.248Y-5.248
M15
G01X5.248Y-5.1811
M16
G05
G00X5.6949Y-2.7874
M15
G01X5.6949Y-2.7205
M16
G05
G00X5.6949Y-3.2795
M15
G01X5.6949Y-3.2126
M16
G05
G00X5.6949Y-3.7717
M15
G01X5.6949Y-3.7047
M16
G05
G00X5.6949Y-4.2638
M15
G01X5.6949Y-4.1969
M16
G05
G00X5.6949Y-4.7559
M15
G01X5.6949Y-4.689
M16
G05
G00X5.6949Y-5.248
M15
G01X5.6949Y-5.1811
M16
G05
G00X5.7047Y-2.1476
M15
G01X5.7047Y-2.0807
M16
G05
G00X5.8071Y-2.6161
M15
G01X5.874Y-2.6161
M16
G05
G00X5.8071Y-2.9311
M15
G01X5.874Y-2.9311
M16
G05
G00X5.8071Y-3.1083
M15
G01X5.874Y-3.1083
M16
G05
G00X5.8071Y-3.4232
M15
G01X5.874Y-3.4232
M16
G05
G00X5.8071Y-3.6004
M15
G01X5.874Y-3.6004
M16
G05
G00X5.8071Y-3.9154
M15
G01X5.874Y-3.9154
M16
G05
G00X5.8071Y-4.0925
M15
G01X5.874Y-4.0925
M16
G05
G00X5.8071Y-4.4075
M15
G01X5.874Y-4.4075
M16
G05
G00X5.8071Y-4.5846
M15
G01X5.874Y-4.5846
M16
G05
G00X5.8071Y-4.8996
M15
G01X5.874Y-4.8996
M16
G05
G00X5.8071Y-5.0768
M15
G01X5.874Y-5.0768
M16
G05
G00X5.8071Y-5.3917
M15
G01X5.874Y-5.3917
M16
G05
G00X5.8169Y-1.9764
M15
G01X5.8839Y-1.9764
M16
G05
G00X5.8169Y-2.2913
M15
G01X5.8839Y-2.2913
M16
G05
G00X5.9862Y-2.7874
M15
G01X5.9862Y-2.7205
M16
G05
G00X5.9862Y-3.2795
M15
G01X5.9862Y-3.2126
M16
G05
G00X5.9862Y-3.7717
M15
G01X5.9862Y-3.7047
M16
G05
G00X5.9862Y-4.2638
M15
G01X5.9862Y-4.1969
M16
G05
G00X5.9862Y-4.7559
M15
G01X5.9862Y-4.689
M16
G05
G00X5.9862Y-5.248
M15
G01X5.9862Y-5.1811
M16
G05
G00X5.9961Y-2.1476
M15
G01X5.9961Y-2.0807
M16
G05
G00X6.4528Y-2.1476
M15
G01X6.4528Y-2.0807
M16
G05
G00X6.4528Y-4.6378
M15
G01X6.4528Y-4.5709
M16
G05
G00X6.565Y-1.9764
M15
G01X6.6319Y-1.9764
M16
G05
G00X6.565Y-2.2913
M15
G01X6.6319Y-2.2913
M16
G05
G00X6.565Y-4.4665
M15
G01X6.6319Y-4.4665
M16
G05
G00X6.565Y-4.7815
M15
G01X6.6319Y-4.7815
M16
G05
G00X6.7441Y-2.1476
M15
G01X6.7441Y-2.0807
M16
G05
G00X6.7441Y-4.6378
M15
G01X6.7441Y-4.5709
M16
G05
T7
G00X4.9134Y-1.4606
M15
G01X4.9134Y-1.4331
M16
G05
G00X5.2913Y-1.4606
M15
G01X5.2913Y-1.4331
M16
G05
G00X5.6614Y-1.4606
M15
G01X5.6614Y-1.4331
M16
G05
G00X6.0394Y-1.4606
M15
G01X6.0394Y-1.4331
M16
G05
G00X6.4075Y-2.726
M15
G01X6.4075Y-2.6984
M16
G05
G00X6.4094Y-1.4606
M15
G01X6.4094Y-1.4331
M16
G05
G00X6.4094Y-3.9892
M15
G01X6.4094Y-3.9616
M16
G05
G00X6.4094Y-5.2018
M15
G01X6.4094Y-5.2293
M16
G05
G00X6.7854Y-2.726
M15
G01X6.7854Y-2.6984
M16
G05
G00X6.7874Y-1.4606
M15
G01X6.7874Y-1.4331
M16
G05
G00X6.7874Y-3.9892
M15
G01X6.7874Y-3.9616
M16
G05
G00X6.7874Y-5.2018
M15
G01X6.7874Y-5.2293
M16
G05
M30
