%TF.GenerationSoftware,KiCad,Pcbnew,7.0.10*%
%TF.CreationDate,2024-04-12T22:08:05+02:00*%
%TF.ProjectId,L235-Analog-Processor,4c323335-2d41-46e6-916c-6f672d50726f,rev?*%
%TF.SameCoordinates,Original*%
%TF.FileFunction,Soldermask,Top*%
%TF.FilePolarity,Negative*%
%FSLAX46Y46*%
G04 Gerber Fmt 4.6, Leading zero omitted, Abs format (unit mm)*
G04 Created by KiCad (PCBNEW 7.0.10) date 2024-04-12 22:08:05*
%MOMM*%
%LPD*%
G01*
G04 APERTURE LIST*
G04 Aperture macros list*
%AMRoundRect*
0 Rectangle with rounded corners*
0 $1 Rounding radius*
0 $2 $3 $4 $5 $6 $7 $8 $9 X,Y pos of 4 corners*
0 Add a 4 corners polygon primitive as box body*
4,1,4,$2,$3,$4,$5,$6,$7,$8,$9,$2,$3,0*
0 Add four circle primitives for the rounded corners*
1,1,$1+$1,$2,$3*
1,1,$1+$1,$4,$5*
1,1,$1+$1,$6,$7*
1,1,$1+$1,$8,$9*
0 Add four rect primitives between the rounded corners*
20,1,$1+$1,$2,$3,$4,$5,0*
20,1,$1+$1,$4,$5,$6,$7,0*
20,1,$1+$1,$6,$7,$8,$9,0*
20,1,$1+$1,$8,$9,$2,$3,0*%
G04 Aperture macros list end*
%ADD10O,2.720000X3.240000*%
%ADD11R,1.800000X1.800000*%
%ADD12C,1.800000*%
%ADD13R,0.650000X1.560000*%
%ADD14RoundRect,0.135000X-0.185000X0.135000X-0.185000X-0.135000X0.185000X-0.135000X0.185000X0.135000X0*%
%ADD15RoundRect,0.135000X0.185000X-0.135000X0.185000X0.135000X-0.185000X0.135000X-0.185000X-0.135000X0*%
%ADD16RoundRect,0.140000X-0.170000X0.140000X-0.170000X-0.140000X0.170000X-0.140000X0.170000X0.140000X0*%
%ADD17C,3.200000*%
%ADD18RoundRect,0.150000X0.825000X0.150000X-0.825000X0.150000X-0.825000X-0.150000X0.825000X-0.150000X0*%
%ADD19RoundRect,0.140000X0.140000X0.170000X-0.140000X0.170000X-0.140000X-0.170000X0.140000X-0.170000X0*%
%ADD20RoundRect,0.135000X-0.135000X-0.185000X0.135000X-0.185000X0.135000X0.185000X-0.135000X0.185000X0*%
%ADD21RoundRect,0.140000X-0.140000X-0.170000X0.140000X-0.170000X0.140000X0.170000X-0.140000X0.170000X0*%
%ADD22RoundRect,0.100000X0.675000X0.100000X-0.675000X0.100000X-0.675000X-0.100000X0.675000X-0.100000X0*%
%ADD23R,3.000000X3.000000*%
%ADD24RoundRect,0.225000X0.225000X0.375000X-0.225000X0.375000X-0.225000X-0.375000X0.225000X-0.375000X0*%
%ADD25C,1.600000*%
%ADD26RoundRect,0.150000X-0.725000X-0.150000X0.725000X-0.150000X0.725000X0.150000X-0.725000X0.150000X0*%
%ADD27RoundRect,0.100000X0.100000X-0.675000X0.100000X0.675000X-0.100000X0.675000X-0.100000X-0.675000X0*%
%ADD28RoundRect,0.150000X0.150000X-0.825000X0.150000X0.825000X-0.150000X0.825000X-0.150000X-0.825000X0*%
%ADD29RoundRect,0.225000X-0.375000X0.225000X-0.375000X-0.225000X0.375000X-0.225000X0.375000X0.225000X0*%
%ADD30RoundRect,0.135000X0.135000X0.185000X-0.135000X0.185000X-0.135000X-0.185000X0.135000X-0.185000X0*%
%ADD31R,1.500000X3.000000*%
%ADD32R,3.000000X1.500000*%
%ADD33RoundRect,0.225000X-0.225000X-0.375000X0.225000X-0.375000X0.225000X0.375000X-0.225000X0.375000X0*%
%ADD34RoundRect,0.140000X0.170000X-0.140000X0.170000X0.140000X-0.170000X0.140000X-0.170000X-0.140000X0*%
%ADD35R,0.600000X1.500000*%
%ADD36RoundRect,0.150000X-0.825000X-0.150000X0.825000X-0.150000X0.825000X0.150000X-0.825000X0.150000X0*%
%ADD37RoundRect,0.150000X-0.150000X0.587500X-0.150000X-0.587500X0.150000X-0.587500X0.150000X0.587500X0*%
%ADD38RoundRect,0.100000X-0.100000X0.675000X-0.100000X-0.675000X0.100000X-0.675000X0.100000X0.675000X0*%
%ADD39R,1.700000X1.700000*%
%ADD40O,1.700000X1.700000*%
%ADD41RoundRect,0.150000X-0.150000X0.825000X-0.150000X-0.825000X0.150000X-0.825000X0.150000X0.825000X0*%
%ADD42R,1.560000X0.650000*%
%ADD43RoundRect,0.250000X-0.350000X0.850000X-0.350000X-0.850000X0.350000X-0.850000X0.350000X0.850000X0*%
%ADD44RoundRect,0.249997X-2.650003X2.950003X-2.650003X-2.950003X2.650003X-2.950003X2.650003X2.950003X0*%
%ADD45RoundRect,0.225000X0.375000X-0.225000X0.375000X0.225000X-0.375000X0.225000X-0.375000X-0.225000X0*%
%ADD46R,1.500000X0.600000*%
%ADD47C,1.200000*%
%ADD48C,1.260000*%
%ADD49C,1.700000*%
G04 APERTURE END LIST*
D10*
%TO.C,RV10*%
X143800000Y-36750000D03*
X153400000Y-36750000D03*
D11*
X146100000Y-44250000D03*
D12*
X148600000Y-44250000D03*
X151100000Y-44250000D03*
%TD*%
D13*
%TO.C,TR4*%
X191840000Y-117070000D03*
X192790000Y-117070000D03*
X193740000Y-117070000D03*
X193740000Y-114370000D03*
X192790000Y-114370000D03*
X191840000Y-114370000D03*
%TD*%
D14*
%TO.C,R14*%
X195790000Y-72450000D03*
X195790000Y-73470000D03*
%TD*%
D15*
%TO.C,R42*%
X199300000Y-129000000D03*
X199300000Y-127980000D03*
%TD*%
D16*
%TO.C,C25*%
X229350000Y-55690000D03*
X229350000Y-56650000D03*
%TD*%
D17*
%TO.C,H1*%
X194100000Y-33250000D03*
%TD*%
D18*
%TO.C,U6*%
X227050000Y-40230000D03*
X227050000Y-38960000D03*
X227050000Y-37690000D03*
X227050000Y-36420000D03*
X222100000Y-36420000D03*
X222100000Y-37690000D03*
X222100000Y-38960000D03*
X222100000Y-40230000D03*
%TD*%
D19*
%TO.C,C35*%
X142280000Y-105350000D03*
X141320000Y-105350000D03*
%TD*%
D20*
%TO.C,R87*%
X134830000Y-101250000D03*
X135850000Y-101250000D03*
%TD*%
D21*
%TO.C,C41*%
X143310000Y-76810000D03*
X144270000Y-76810000D03*
%TD*%
D22*
%TO.C,U26*%
X189350000Y-72675000D03*
X189350000Y-72025000D03*
X189350000Y-71375000D03*
X189350000Y-70725000D03*
X189350000Y-70075000D03*
X189350000Y-69425000D03*
X189350000Y-68775000D03*
X189350000Y-68125000D03*
X183600000Y-68125000D03*
X183600000Y-68775000D03*
X183600000Y-69425000D03*
X183600000Y-70075000D03*
X183600000Y-70725000D03*
X183600000Y-71375000D03*
X183600000Y-72025000D03*
X183600000Y-72675000D03*
D23*
X186475000Y-70400000D03*
%TD*%
D24*
%TO.C,D17*%
X162160000Y-122540000D03*
X158860000Y-122540000D03*
%TD*%
D21*
%TO.C,C1*%
X230365000Y-43025000D03*
X231325000Y-43025000D03*
%TD*%
%TO.C,C80*%
X204165000Y-62325000D03*
X205125000Y-62325000D03*
%TD*%
D25*
%TO.C,C7*%
X191950000Y-108150000D03*
X191950000Y-103150000D03*
%TD*%
D14*
%TO.C,R35*%
X142350000Y-74140000D03*
X142350000Y-75160000D03*
%TD*%
D20*
%TO.C,R85*%
X134910000Y-76650000D03*
X135930000Y-76650000D03*
%TD*%
D21*
%TO.C,C66*%
X183376000Y-95028000D03*
X184336000Y-95028000D03*
%TD*%
D26*
%TO.C,U15*%
X136600000Y-93440000D03*
X136600000Y-94710000D03*
X136600000Y-95980000D03*
X136600000Y-97250000D03*
X141750000Y-97250000D03*
X141750000Y-95980000D03*
X141750000Y-94710000D03*
X141750000Y-93440000D03*
%TD*%
D27*
%TO.C,U33*%
X203600000Y-117260000D03*
X204250000Y-117260000D03*
X204900000Y-117260000D03*
X205550000Y-117260000D03*
X206200000Y-117260000D03*
X206850000Y-117260000D03*
X207500000Y-117260000D03*
X208150000Y-117260000D03*
X208150000Y-111510000D03*
X207500000Y-111510000D03*
X206850000Y-111510000D03*
X206200000Y-111510000D03*
X205550000Y-111510000D03*
X204900000Y-111510000D03*
X204250000Y-111510000D03*
X203600000Y-111510000D03*
D23*
X205875000Y-114385000D03*
%TD*%
D21*
%TO.C,C50*%
X187186000Y-95434400D03*
X188146000Y-95434400D03*
%TD*%
D28*
%TO.C,U9*%
X185385000Y-126700000D03*
X186655000Y-126700000D03*
X187925000Y-126700000D03*
X189195000Y-126700000D03*
X189195000Y-121750000D03*
X187925000Y-121750000D03*
X186655000Y-121750000D03*
X185385000Y-121750000D03*
%TD*%
D20*
%TO.C,R21*%
X220600000Y-61830000D03*
X221620000Y-61830000D03*
%TD*%
D29*
%TO.C,D21*%
X192328800Y-127942800D03*
X192328800Y-131242800D03*
%TD*%
D22*
%TO.C,U28*%
X189407561Y-86750000D03*
X189407561Y-86100000D03*
X189407561Y-85450000D03*
X189407561Y-84800000D03*
X189407561Y-84150000D03*
X189407561Y-83500000D03*
X189407561Y-82850000D03*
X189407561Y-82200000D03*
X183657561Y-82200000D03*
X183657561Y-82850000D03*
X183657561Y-83500000D03*
X183657561Y-84150000D03*
X183657561Y-84800000D03*
X183657561Y-85450000D03*
X183657561Y-86100000D03*
X183657561Y-86750000D03*
D23*
X186532561Y-84475000D03*
%TD*%
D30*
%TO.C,R72*%
X158244000Y-115978000D03*
X157224000Y-115978000D03*
%TD*%
D21*
%TO.C,C6*%
X183020000Y-117750000D03*
X183980000Y-117750000D03*
%TD*%
D19*
%TO.C,C69*%
X185850000Y-87780000D03*
X184890000Y-87780000D03*
%TD*%
D28*
%TO.C,U10*%
X185385000Y-117450000D03*
X186655000Y-117450000D03*
X187925000Y-117450000D03*
X189195000Y-117450000D03*
X189195000Y-112500000D03*
X187925000Y-112500000D03*
X186655000Y-112500000D03*
X185385000Y-112500000D03*
%TD*%
D30*
%TO.C,R88*%
X133770000Y-60130000D03*
X132750000Y-60130000D03*
%TD*%
D29*
%TO.C,D10*%
X230850000Y-38400000D03*
X230850000Y-41700000D03*
%TD*%
D31*
%TO.C,J11*%
X152050000Y-94950000D03*
D32*
X148350000Y-91450000D03*
X148350000Y-99450000D03*
D31*
X144650000Y-94950000D03*
%TD*%
%TO.C,J4*%
X152050000Y-119950000D03*
D32*
X148350000Y-116450000D03*
X148350000Y-124450000D03*
D31*
X144650000Y-119950000D03*
%TD*%
D14*
%TO.C,R24*%
X220600000Y-45880000D03*
X220600000Y-46900000D03*
%TD*%
D20*
%TO.C,R76*%
X158060000Y-135330000D03*
X159080000Y-135330000D03*
%TD*%
%TO.C,R26*%
X222950000Y-50350000D03*
X223970000Y-50350000D03*
%TD*%
D19*
%TO.C,C48*%
X195300000Y-52550000D03*
X194340000Y-52550000D03*
%TD*%
D30*
%TO.C,R5*%
X137410000Y-57525000D03*
X136390000Y-57525000D03*
%TD*%
D20*
%TO.C,R106*%
X227795000Y-130030000D03*
X228815000Y-130030000D03*
%TD*%
%TO.C,R92*%
X152640000Y-101725000D03*
X153660000Y-101725000D03*
%TD*%
D31*
%TO.C,J2*%
X152300000Y-53700000D03*
D32*
X148600000Y-50200000D03*
X148600000Y-58200000D03*
D31*
X144900000Y-53700000D03*
%TD*%
D20*
%TO.C,R37*%
X144240000Y-88860000D03*
X145260000Y-88860000D03*
%TD*%
D31*
%TO.C,J12*%
X171300000Y-53700000D03*
D32*
X167600000Y-50200000D03*
X167600000Y-58200000D03*
D31*
X163900000Y-53700000D03*
%TD*%
D33*
%TO.C,D8*%
X140125000Y-60500000D03*
X143425000Y-60500000D03*
%TD*%
D16*
%TO.C,C28*%
X183980400Y-121698000D03*
X183980400Y-122658000D03*
%TD*%
D21*
%TO.C,C4*%
X141600000Y-92000000D03*
X142560000Y-92000000D03*
%TD*%
%TO.C,C43*%
X207637500Y-98675000D03*
X208597500Y-98675000D03*
%TD*%
D34*
%TO.C,C54*%
X191041600Y-54337200D03*
X191041600Y-53377200D03*
%TD*%
D30*
%TO.C,R3*%
X144277500Y-46227501D03*
X143257500Y-46227501D03*
%TD*%
%TO.C,R23*%
X225111974Y-41685000D03*
X224091974Y-41685000D03*
%TD*%
D14*
%TO.C,R59*%
X141859000Y-130429000D03*
X141859000Y-131449000D03*
%TD*%
D16*
%TO.C,C71*%
X203600000Y-107690000D03*
X203600000Y-108650000D03*
%TD*%
D20*
%TO.C,R75*%
X155573000Y-131699000D03*
X156593000Y-131699000D03*
%TD*%
D14*
%TO.C,R49*%
X178562000Y-120241600D03*
X178562000Y-121261600D03*
%TD*%
D16*
%TO.C,C9*%
X139573000Y-130485000D03*
X139573000Y-131445000D03*
%TD*%
%TO.C,C58*%
X209490000Y-116390000D03*
X209490000Y-117350000D03*
%TD*%
D30*
%TO.C,R63*%
X192695000Y-74050000D03*
X191675000Y-74050000D03*
%TD*%
%TO.C,R108*%
X218920000Y-130020000D03*
X217900000Y-130020000D03*
%TD*%
D34*
%TO.C,C27*%
X190500000Y-137160000D03*
X190500000Y-136200000D03*
%TD*%
D31*
%TO.C,J17*%
X133300000Y-82450000D03*
D32*
X129600000Y-78950000D03*
X129600000Y-86950000D03*
D31*
X125900000Y-82450000D03*
%TD*%
D10*
%TO.C,RV9*%
X124800000Y-36750000D03*
X134400000Y-36750000D03*
D11*
X127100000Y-44250000D03*
D12*
X129600000Y-44250000D03*
X132100000Y-44250000D03*
%TD*%
D19*
%TO.C,C75*%
X228860000Y-116725000D03*
X227900000Y-116725000D03*
%TD*%
D27*
%TO.C,U32*%
X210922500Y-117060000D03*
X211572500Y-117060000D03*
X212222500Y-117060000D03*
X212872500Y-117060000D03*
X213522500Y-117060000D03*
X214172500Y-117060000D03*
X214822500Y-117060000D03*
X215472500Y-117060000D03*
X215472500Y-111310000D03*
X214822500Y-111310000D03*
X214172500Y-111310000D03*
X213522500Y-111310000D03*
X212872500Y-111310000D03*
X212222500Y-111310000D03*
X211572500Y-111310000D03*
X210922500Y-111310000D03*
D23*
X213197500Y-114185000D03*
%TD*%
D21*
%TO.C,C76*%
X227815000Y-133750000D03*
X228775000Y-133750000D03*
%TD*%
D16*
%TO.C,C24*%
X162790000Y-82480000D03*
X162790000Y-83440000D03*
%TD*%
D31*
%TO.C,J7*%
X152050000Y-69950000D03*
D32*
X148350000Y-66450000D03*
X148350000Y-74450000D03*
D31*
X144650000Y-69950000D03*
%TD*%
D35*
%TO.C,U19*%
X189572500Y-41185000D03*
X188302500Y-41185000D03*
X187032500Y-41185000D03*
X185762500Y-41185000D03*
X184492500Y-41185000D03*
X183222500Y-41185000D03*
X181952500Y-41185000D03*
X180682500Y-41185000D03*
X180682500Y-48285000D03*
X181952500Y-48285000D03*
X183222500Y-48285000D03*
X184492500Y-48285000D03*
X185762500Y-48285000D03*
X187032500Y-48285000D03*
X188302500Y-48285000D03*
X189572500Y-48285000D03*
%TD*%
D13*
%TO.C,TR3*%
X181125000Y-122850000D03*
X180175000Y-122850000D03*
X179225000Y-122850000D03*
X179225000Y-125550000D03*
X180175000Y-125550000D03*
X181125000Y-125550000D03*
%TD*%
D22*
%TO.C,U24*%
X189400000Y-79725000D03*
X189400000Y-79075000D03*
X189400000Y-78425000D03*
X189400000Y-77775000D03*
X189400000Y-77125000D03*
X189400000Y-76475000D03*
X189400000Y-75825000D03*
X189400000Y-75175000D03*
X183650000Y-75175000D03*
X183650000Y-75825000D03*
X183650000Y-76475000D03*
X183650000Y-77125000D03*
X183650000Y-77775000D03*
X183650000Y-78425000D03*
X183650000Y-79075000D03*
X183650000Y-79725000D03*
D23*
X186525000Y-77450000D03*
%TD*%
D29*
%TO.C,D20*%
X194868800Y-127968200D03*
X194868800Y-131268200D03*
%TD*%
D34*
%TO.C,C37*%
X143170000Y-121770000D03*
X143170000Y-120810000D03*
%TD*%
D19*
%TO.C,C52*%
X185860000Y-80900000D03*
X184900000Y-80900000D03*
%TD*%
D21*
%TO.C,C16*%
X134820000Y-56050000D03*
X135780000Y-56050000D03*
%TD*%
D15*
%TO.C,R101*%
X193500000Y-98950000D03*
X193500000Y-97930000D03*
%TD*%
D19*
%TO.C,C22*%
X227920000Y-35030000D03*
X226960000Y-35030000D03*
%TD*%
D21*
%TO.C,C60*%
X195725000Y-109700000D03*
X196685000Y-109700000D03*
%TD*%
D16*
%TO.C,C14*%
X134680000Y-68140000D03*
X134680000Y-69100000D03*
%TD*%
D34*
%TO.C,C77*%
X218950000Y-134710000D03*
X218950000Y-133750000D03*
%TD*%
D30*
%TO.C,R107*%
X228835000Y-131180000D03*
X227815000Y-131180000D03*
%TD*%
D36*
%TO.C,U29*%
X220975000Y-118095000D03*
X220975000Y-119365000D03*
X220975000Y-120635000D03*
X220975000Y-121905000D03*
X220975000Y-123175000D03*
X220975000Y-124445000D03*
X220975000Y-125715000D03*
X225925000Y-125715000D03*
X225925000Y-124445000D03*
X225925000Y-123175000D03*
X225925000Y-121905000D03*
X225925000Y-120635000D03*
X225925000Y-119365000D03*
X225925000Y-118095000D03*
%TD*%
D14*
%TO.C,R22*%
X225450000Y-49290000D03*
X225450000Y-50310000D03*
%TD*%
D30*
%TO.C,R94*%
X200152500Y-40360000D03*
X199132500Y-40360000D03*
%TD*%
D31*
%TO.C,J13*%
X171300000Y-116950000D03*
D32*
X167600000Y-113450000D03*
X167600000Y-121450000D03*
D31*
X163900000Y-116950000D03*
%TD*%
D20*
%TO.C,R1*%
X133477500Y-46050000D03*
X134497500Y-46050000D03*
%TD*%
D16*
%TO.C,C36*%
X134770000Y-120120000D03*
X134770000Y-121080000D03*
%TD*%
D37*
%TO.C,U18*%
X208600000Y-100300000D03*
X206700000Y-100300000D03*
X207650000Y-102175000D03*
%TD*%
D20*
%TO.C,R105*%
X227905000Y-124405000D03*
X228925000Y-124405000D03*
%TD*%
D21*
%TO.C,C8*%
X142140000Y-111900000D03*
X143100000Y-111900000D03*
%TD*%
D19*
%TO.C,C46*%
X209335000Y-49300000D03*
X208375000Y-49300000D03*
%TD*%
D30*
%TO.C,R20*%
X144272000Y-64262000D03*
X143252000Y-64262000D03*
%TD*%
D21*
%TO.C,C64*%
X180554000Y-100997000D03*
X181514000Y-100997000D03*
%TD*%
D18*
%TO.C,U30*%
X225900000Y-136270000D03*
X225900000Y-135000000D03*
X225900000Y-133730000D03*
X225900000Y-132460000D03*
X225900000Y-131190000D03*
X225900000Y-129920000D03*
X225900000Y-128650000D03*
X220950000Y-128650000D03*
X220950000Y-129920000D03*
X220950000Y-131190000D03*
X220950000Y-132460000D03*
X220950000Y-133730000D03*
X220950000Y-135000000D03*
X220950000Y-136270000D03*
%TD*%
D14*
%TO.C,R13*%
X195790000Y-70450000D03*
X195790000Y-71470000D03*
%TD*%
D20*
%TO.C,R84*%
X135058000Y-91980000D03*
X136078000Y-91980000D03*
%TD*%
%TO.C,R54*%
X186720000Y-110640000D03*
X187740000Y-110640000D03*
%TD*%
D24*
%TO.C,D31*%
X138190000Y-84290000D03*
X134890000Y-84290000D03*
%TD*%
D31*
%TO.C,J8*%
X152050000Y-107450000D03*
D32*
X148350000Y-103950000D03*
X148350000Y-111950000D03*
D31*
X144650000Y-107450000D03*
%TD*%
D10*
%TO.C,RV11*%
X162800000Y-36750000D03*
X172400000Y-36750000D03*
D11*
X165100000Y-44250000D03*
D12*
X167600000Y-44250000D03*
X170100000Y-44250000D03*
%TD*%
D30*
%TO.C,R90*%
X199110000Y-39400000D03*
X198090000Y-39400000D03*
%TD*%
D16*
%TO.C,C67*%
X182030000Y-71740000D03*
X182030000Y-72700000D03*
%TD*%
D22*
%TO.C,U23*%
X189325000Y-101050000D03*
X189325000Y-100400000D03*
X189325000Y-99750000D03*
X189325000Y-99100000D03*
X189325000Y-98450000D03*
X189325000Y-97800000D03*
X189325000Y-97150000D03*
X189325000Y-96500000D03*
X183575000Y-96500000D03*
X183575000Y-97150000D03*
X183575000Y-97800000D03*
X183575000Y-98450000D03*
X183575000Y-99100000D03*
X183575000Y-99750000D03*
X183575000Y-100400000D03*
X183575000Y-101050000D03*
D23*
X186450000Y-98775000D03*
%TD*%
D20*
%TO.C,R79*%
X137160000Y-125603000D03*
X138180000Y-125603000D03*
%TD*%
D24*
%TO.C,D11*%
X157240000Y-122530000D03*
X153940000Y-122530000D03*
%TD*%
D36*
%TO.C,U7*%
X165175000Y-79645000D03*
X165175000Y-80915000D03*
X165175000Y-82185000D03*
X165175000Y-83455000D03*
X170125000Y-83455000D03*
X170125000Y-82185000D03*
X170125000Y-80915000D03*
X170125000Y-79645000D03*
%TD*%
D34*
%TO.C,C63*%
X191020000Y-62060000D03*
X191020000Y-61100000D03*
%TD*%
D24*
%TO.C,D1*%
X139600000Y-70080000D03*
X136300000Y-70080000D03*
%TD*%
D14*
%TO.C,R27*%
X230600000Y-55650000D03*
X230600000Y-56670000D03*
%TD*%
D19*
%TO.C,C21*%
X220350000Y-40240000D03*
X219390000Y-40240000D03*
%TD*%
D31*
%TO.C,J5*%
X133300000Y-132450000D03*
D32*
X129600000Y-128950000D03*
X129600000Y-136950000D03*
D31*
X125900000Y-132450000D03*
%TD*%
D28*
%TO.C,U8*%
X185385000Y-136150000D03*
X186655000Y-136150000D03*
X187925000Y-136150000D03*
X189195000Y-136150000D03*
X189195000Y-131200000D03*
X187925000Y-131200000D03*
X186655000Y-131200000D03*
X185385000Y-131200000D03*
%TD*%
D31*
%TO.C,J10*%
X133300000Y-107450000D03*
D32*
X129600000Y-103950000D03*
X129600000Y-111950000D03*
D31*
X125900000Y-107450000D03*
%TD*%
D24*
%TO.C,D13*%
X157270000Y-124950000D03*
X153970000Y-124950000D03*
%TD*%
D34*
%TO.C,C5*%
X183500000Y-127780000D03*
X183500000Y-126820000D03*
%TD*%
D20*
%TO.C,R66*%
X165730000Y-60600000D03*
X166750000Y-60600000D03*
%TD*%
D38*
%TO.C,U34*%
X199850000Y-96250000D03*
X199200000Y-96250000D03*
X198550000Y-96250000D03*
X197900000Y-96250000D03*
X197250000Y-96250000D03*
X196600000Y-96250000D03*
X195950000Y-96250000D03*
X195300000Y-96250000D03*
X195300000Y-102000000D03*
X195950000Y-102000000D03*
X196600000Y-102000000D03*
X197250000Y-102000000D03*
X197900000Y-102000000D03*
X198550000Y-102000000D03*
X199200000Y-102000000D03*
X199850000Y-102000000D03*
D23*
X197575000Y-99125000D03*
%TD*%
D30*
%TO.C,R69*%
X143160000Y-113050000D03*
X142140000Y-113050000D03*
%TD*%
D20*
%TO.C,R38*%
X138530000Y-89420000D03*
X139550000Y-89420000D03*
%TD*%
D30*
%TO.C,R17*%
X199500000Y-88700000D03*
X198480000Y-88700000D03*
%TD*%
D19*
%TO.C,C65*%
X189969600Y-88373200D03*
X189009600Y-88373200D03*
%TD*%
%TO.C,C12*%
X141440000Y-42785000D03*
X140480000Y-42785000D03*
%TD*%
D16*
%TO.C,C44*%
X194925000Y-39445000D03*
X194925000Y-40405000D03*
%TD*%
D19*
%TO.C,C10*%
X136170000Y-125603000D03*
X135210000Y-125603000D03*
%TD*%
D15*
%TO.C,R112*%
X210937500Y-121850000D03*
X210937500Y-120830000D03*
%TD*%
D36*
%TO.C,U1*%
X136490000Y-44245000D03*
X136490000Y-45515000D03*
X136490000Y-46785000D03*
X136490000Y-48055000D03*
X141440000Y-48055000D03*
X141440000Y-46785000D03*
X141440000Y-45515000D03*
X141440000Y-44245000D03*
%TD*%
D30*
%TO.C,R34*%
X147010000Y-76700000D03*
X145990000Y-76700000D03*
%TD*%
D31*
%TO.C,J15*%
X133300000Y-94950000D03*
D32*
X129600000Y-91450000D03*
X129600000Y-99450000D03*
D31*
X125900000Y-94950000D03*
%TD*%
D19*
%TO.C,C30*%
X183935000Y-112525000D03*
X182975000Y-112525000D03*
%TD*%
%TO.C,C49*%
X185700000Y-59000000D03*
X184740000Y-59000000D03*
%TD*%
D36*
%TO.C,U2*%
X136415000Y-64310000D03*
X136415000Y-65580000D03*
X136415000Y-66850000D03*
X136415000Y-68120000D03*
X141365000Y-68120000D03*
X141365000Y-66850000D03*
X141365000Y-65580000D03*
X141365000Y-64310000D03*
%TD*%
D30*
%TO.C,R29*%
X221620000Y-50400000D03*
X220600000Y-50400000D03*
%TD*%
D20*
%TO.C,R32*%
X218490000Y-52900000D03*
X219510000Y-52900000D03*
%TD*%
%TO.C,R61*%
X227905000Y-121905000D03*
X228925000Y-121905000D03*
%TD*%
D15*
%TO.C,R58*%
X183950000Y-109550000D03*
X183950000Y-108530000D03*
%TD*%
%TO.C,R33*%
X231200000Y-35020000D03*
X231200000Y-34000000D03*
%TD*%
D17*
%TO.C,H2*%
X213100000Y-33250000D03*
%TD*%
D20*
%TO.C,R74*%
X155563000Y-132949000D03*
X156583000Y-132949000D03*
%TD*%
D30*
%TO.C,R52*%
X182975000Y-116750000D03*
X181955000Y-116750000D03*
%TD*%
D19*
%TO.C,C56*%
X220880000Y-116420000D03*
X219920000Y-116420000D03*
%TD*%
D33*
%TO.C,D32*%
X134800000Y-87690000D03*
X138100000Y-87690000D03*
%TD*%
D34*
%TO.C,C2*%
X231200000Y-37000000D03*
X231200000Y-36040000D03*
%TD*%
D15*
%TO.C,R103*%
X192100000Y-63960000D03*
X192100000Y-62940000D03*
%TD*%
D16*
%TO.C,C29*%
X190584400Y-125078800D03*
X190584400Y-126038800D03*
%TD*%
D34*
%TO.C,C73*%
X200900000Y-102500000D03*
X200900000Y-101540000D03*
%TD*%
D30*
%TO.C,R10*%
X206190000Y-71260000D03*
X205170000Y-71260000D03*
%TD*%
D20*
%TO.C,R19*%
X145830000Y-60560000D03*
X146850000Y-60560000D03*
%TD*%
D31*
%TO.C,J16*%
X133300000Y-69950000D03*
D32*
X129600000Y-66450000D03*
X129600000Y-74450000D03*
D31*
X125900000Y-69950000D03*
%TD*%
D10*
%TO.C,RV8*%
X172400000Y-132475000D03*
X162800000Y-132475000D03*
D11*
X170100000Y-124975000D03*
D12*
X167600000Y-124975000D03*
X165100000Y-124975000D03*
%TD*%
D39*
%TO.C,J19*%
X213100000Y-56220000D03*
D40*
X213100000Y-58760000D03*
X213100000Y-61300000D03*
X213100000Y-63840000D03*
X213100000Y-66380000D03*
X213100000Y-68920000D03*
X213100000Y-71460000D03*
X213100000Y-74000000D03*
X213100000Y-76540000D03*
X213100000Y-79080000D03*
X213100000Y-81620000D03*
X213100000Y-84160000D03*
X213100000Y-86700000D03*
X213100000Y-89240000D03*
X213100000Y-91780000D03*
X213100000Y-94320000D03*
X213100000Y-96860000D03*
X213100000Y-99400000D03*
X213100000Y-101940000D03*
X213100000Y-104480000D03*
%TD*%
D19*
%TO.C,C70*%
X210560000Y-109750000D03*
X209600000Y-109750000D03*
%TD*%
%TO.C,C68*%
X185780000Y-66800000D03*
X184820000Y-66800000D03*
%TD*%
D15*
%TO.C,R113*%
X213537500Y-121870000D03*
X213537500Y-120850000D03*
%TD*%
D19*
%TO.C,C19*%
X223904000Y-48495200D03*
X222944000Y-48495200D03*
%TD*%
D20*
%TO.C,R31*%
X221850000Y-41650000D03*
X222870000Y-41650000D03*
%TD*%
D30*
%TO.C,R104*%
X192685000Y-72650000D03*
X191665000Y-72650000D03*
%TD*%
D33*
%TO.C,D2*%
X134960000Y-72470000D03*
X138260000Y-72470000D03*
%TD*%
D36*
%TO.C,U14*%
X198450000Y-63740000D03*
X198450000Y-65010000D03*
X198450000Y-66280000D03*
X198450000Y-67550000D03*
X203400000Y-67550000D03*
X203400000Y-66280000D03*
X203400000Y-65010000D03*
X203400000Y-63740000D03*
%TD*%
D18*
%TO.C,U5*%
X227350000Y-47155000D03*
X227350000Y-45885000D03*
X227350000Y-44615000D03*
X227350000Y-43345000D03*
X222400000Y-43345000D03*
X222400000Y-44615000D03*
X222400000Y-45885000D03*
X222400000Y-47155000D03*
%TD*%
D15*
%TO.C,R28*%
X220350000Y-38400000D03*
X220350000Y-37380000D03*
%TD*%
D14*
%TO.C,R78*%
X140716000Y-130425000D03*
X140716000Y-131445000D03*
%TD*%
D16*
%TO.C,C42*%
X134820000Y-80360000D03*
X134820000Y-81320000D03*
%TD*%
D24*
%TO.C,D16*%
X157250000Y-127380000D03*
X153950000Y-127380000D03*
%TD*%
D25*
%TO.C,C3*%
X170100000Y-86000000D03*
X165100000Y-86000000D03*
%TD*%
D14*
%TO.C,R98*%
X197835000Y-49315000D03*
X197835000Y-50335000D03*
%TD*%
D33*
%TO.C,D7*%
X140125000Y-58200000D03*
X143425000Y-58200000D03*
%TD*%
D20*
%TO.C,R30*%
X218350000Y-43150000D03*
X219370000Y-43150000D03*
%TD*%
D17*
%TO.C,H3*%
X139100000Y-135250000D03*
%TD*%
D30*
%TO.C,R102*%
X190400000Y-74050000D03*
X189380000Y-74050000D03*
%TD*%
D24*
%TO.C,D14*%
X157265000Y-120030000D03*
X153965000Y-120030000D03*
%TD*%
D36*
%TO.C,U3*%
X136477500Y-49740000D03*
X136477500Y-51010000D03*
X136477500Y-52280000D03*
X136477500Y-53550000D03*
X141427500Y-53550000D03*
X141427500Y-52280000D03*
X141427500Y-51010000D03*
X141427500Y-49740000D03*
%TD*%
D33*
%TO.C,D4*%
X139757500Y-72490000D03*
X143057500Y-72490000D03*
%TD*%
D30*
%TO.C,R8*%
X142590000Y-70740000D03*
X141570000Y-70740000D03*
%TD*%
D28*
%TO.C,U20*%
X192765000Y-47085000D03*
X194035000Y-47085000D03*
X195305000Y-47085000D03*
X196575000Y-47085000D03*
X197845000Y-47085000D03*
X199115000Y-47085000D03*
X200385000Y-47085000D03*
X200385000Y-42135000D03*
X199115000Y-42135000D03*
X197845000Y-42135000D03*
X196575000Y-42135000D03*
X195305000Y-42135000D03*
X194035000Y-42135000D03*
X192765000Y-42135000D03*
%TD*%
D15*
%TO.C,R43*%
X181160000Y-128270000D03*
X181160000Y-127250000D03*
%TD*%
D20*
%TO.C,R109*%
X217880000Y-128770000D03*
X218900000Y-128770000D03*
%TD*%
D22*
%TO.C,U22*%
X189350000Y-57925000D03*
X189350000Y-57275000D03*
X189350000Y-56625000D03*
X189350000Y-55975000D03*
X189350000Y-55325000D03*
X189350000Y-54675000D03*
X189350000Y-54025000D03*
X189350000Y-53375000D03*
X183600000Y-53375000D03*
X183600000Y-54025000D03*
X183600000Y-54675000D03*
X183600000Y-55325000D03*
X183600000Y-55975000D03*
X183600000Y-56625000D03*
X183600000Y-57275000D03*
X183600000Y-57925000D03*
D23*
X186475000Y-55650000D03*
%TD*%
D19*
%TO.C,C13*%
X139136000Y-62992000D03*
X138176000Y-62992000D03*
%TD*%
D15*
%TO.C,R68*%
X134550000Y-111970000D03*
X134550000Y-110950000D03*
%TD*%
%TO.C,R67*%
X134700000Y-109155000D03*
X134700000Y-108135000D03*
%TD*%
%TO.C,R40*%
X190550000Y-133250000D03*
X190550000Y-132230000D03*
%TD*%
D20*
%TO.C,R81*%
X142140000Y-114200000D03*
X143160000Y-114200000D03*
%TD*%
D33*
%TO.C,D19*%
X137500000Y-114350000D03*
X140800000Y-114350000D03*
%TD*%
D24*
%TO.C,D29*%
X143000000Y-84270000D03*
X139700000Y-84270000D03*
%TD*%
D21*
%TO.C,C82*%
X195530000Y-79342500D03*
X196490000Y-79342500D03*
%TD*%
D22*
%TO.C,U27*%
X189350000Y-65675000D03*
X189350000Y-65025000D03*
X189350000Y-64375000D03*
X189350000Y-63725000D03*
X189350000Y-63075000D03*
X189350000Y-62425000D03*
X189350000Y-61775000D03*
X189350000Y-61125000D03*
X183600000Y-61125000D03*
X183600000Y-61775000D03*
X183600000Y-62425000D03*
X183600000Y-63075000D03*
X183600000Y-63725000D03*
X183600000Y-64375000D03*
X183600000Y-65025000D03*
X183600000Y-65675000D03*
D23*
X186475000Y-63400000D03*
%TD*%
D33*
%TO.C,D22*%
X139829000Y-126111000D03*
X143129000Y-126111000D03*
%TD*%
D30*
%TO.C,R18*%
X197330000Y-88700000D03*
X196310000Y-88700000D03*
%TD*%
D24*
%TO.C,D6*%
X140550000Y-55875000D03*
X137250000Y-55875000D03*
%TD*%
D19*
%TO.C,C20*%
X228481200Y-41840400D03*
X227521200Y-41840400D03*
%TD*%
D33*
%TO.C,D12*%
X158877500Y-120020000D03*
X162177500Y-120020000D03*
%TD*%
D19*
%TO.C,C61*%
X228510000Y-64775000D03*
X227550000Y-64775000D03*
%TD*%
D36*
%TO.C,U13*%
X136525000Y-116317500D03*
X136525000Y-117587500D03*
X136525000Y-118857500D03*
X136525000Y-120127500D03*
X136525000Y-121397500D03*
X136525000Y-122667500D03*
X136525000Y-123937500D03*
X141475000Y-123937500D03*
X141475000Y-122667500D03*
X141475000Y-121397500D03*
X141475000Y-120127500D03*
X141475000Y-118857500D03*
X141475000Y-117587500D03*
X141475000Y-116317500D03*
%TD*%
D20*
%TO.C,R25*%
X224060000Y-51650000D03*
X225080000Y-51650000D03*
%TD*%
D39*
%TO.C,J14*%
X158100000Y-56220000D03*
D40*
X158100000Y-58760000D03*
X158100000Y-61300000D03*
X158100000Y-63840000D03*
X158100000Y-66380000D03*
X158100000Y-68920000D03*
X158100000Y-71460000D03*
X158100000Y-74000000D03*
X158100000Y-76540000D03*
X158100000Y-79080000D03*
X158100000Y-81620000D03*
X158100000Y-84160000D03*
X158100000Y-86700000D03*
X158100000Y-89240000D03*
X158100000Y-91780000D03*
X158100000Y-94320000D03*
X158100000Y-96860000D03*
X158100000Y-99400000D03*
X158100000Y-101940000D03*
X158100000Y-104480000D03*
%TD*%
D19*
%TO.C,C40*%
X137600000Y-98750000D03*
X136640000Y-98750000D03*
%TD*%
D14*
%TO.C,R50*%
X178562000Y-118362000D03*
X178562000Y-119382000D03*
%TD*%
D20*
%TO.C,R36*%
X139325000Y-86000000D03*
X140345000Y-86000000D03*
%TD*%
D18*
%TO.C,U4*%
X203290000Y-74860000D03*
X203290000Y-73590000D03*
X203290000Y-72320000D03*
X203290000Y-71050000D03*
X198340000Y-71050000D03*
X198340000Y-72320000D03*
X198340000Y-73590000D03*
X198340000Y-74860000D03*
%TD*%
D10*
%TO.C,RV12*%
X162800000Y-100975000D03*
X172400000Y-100975000D03*
D11*
X165100000Y-108475000D03*
D12*
X167600000Y-108475000D03*
X170100000Y-108475000D03*
%TD*%
D21*
%TO.C,C34*%
X137400000Y-111900000D03*
X138360000Y-111900000D03*
%TD*%
%TO.C,C51*%
X185380000Y-74090000D03*
X186340000Y-74090000D03*
%TD*%
D16*
%TO.C,C45*%
X195300000Y-50345000D03*
X195300000Y-51305000D03*
%TD*%
D30*
%TO.C,R71*%
X145034000Y-115316000D03*
X144014000Y-115316000D03*
%TD*%
D19*
%TO.C,C55*%
X190010000Y-80950000D03*
X189050000Y-80950000D03*
%TD*%
D15*
%TO.C,R99*%
X196585000Y-50335000D03*
X196585000Y-49315000D03*
%TD*%
%TO.C,R97*%
X204535000Y-50355000D03*
X204535000Y-49335000D03*
%TD*%
D21*
%TO.C,C57*%
X214465000Y-118650000D03*
X215425000Y-118650000D03*
%TD*%
%TO.C,C59*%
X200280000Y-119535000D03*
X201240000Y-119535000D03*
%TD*%
D30*
%TO.C,R9*%
X206190000Y-72260000D03*
X205170000Y-72260000D03*
%TD*%
D21*
%TO.C,C81*%
X200690000Y-69650000D03*
X201650000Y-69650000D03*
%TD*%
D20*
%TO.C,R70*%
X156208000Y-114808000D03*
X157228000Y-114808000D03*
%TD*%
D30*
%TO.C,R111*%
X166125000Y-111500000D03*
X165105000Y-111500000D03*
%TD*%
%TO.C,R65*%
X166750000Y-61700000D03*
X165730000Y-61700000D03*
%TD*%
D20*
%TO.C,R39*%
X142090000Y-100000000D03*
X143110000Y-100000000D03*
%TD*%
D41*
%TO.C,U21*%
X210885000Y-42085000D03*
X209615000Y-42085000D03*
X208345000Y-42085000D03*
X207075000Y-42085000D03*
X205805000Y-42085000D03*
X204535000Y-42085000D03*
X203265000Y-42085000D03*
X203265000Y-47035000D03*
X204535000Y-47035000D03*
X205805000Y-47035000D03*
X207075000Y-47035000D03*
X208345000Y-47035000D03*
X209615000Y-47035000D03*
X210885000Y-47035000D03*
%TD*%
D31*
%TO.C,J1*%
X133300000Y-53700000D03*
D32*
X129600000Y-50200000D03*
X129600000Y-58200000D03*
D31*
X125900000Y-53700000D03*
%TD*%
D42*
%TO.C,TR2*%
X218800000Y-51300000D03*
X218800000Y-50350000D03*
X218800000Y-49400000D03*
X216100000Y-49400000D03*
X216100000Y-50350000D03*
X216100000Y-51300000D03*
%TD*%
D11*
%TO.C,D24*%
X135325000Y-129000000D03*
D12*
X137865000Y-129000000D03*
%TD*%
D30*
%TO.C,R64*%
X193775000Y-75150000D03*
X192755000Y-75150000D03*
%TD*%
D24*
%TO.C,D15*%
X157275000Y-117605000D03*
X153975000Y-117605000D03*
%TD*%
D22*
%TO.C,U25*%
X189375000Y-93950000D03*
X189375000Y-93300000D03*
X189375000Y-92650000D03*
X189375000Y-92000000D03*
X189375000Y-91350000D03*
X189375000Y-90700000D03*
X189375000Y-90050000D03*
X189375000Y-89400000D03*
X183625000Y-89400000D03*
X183625000Y-90050000D03*
X183625000Y-90700000D03*
X183625000Y-91350000D03*
X183625000Y-92000000D03*
X183625000Y-92650000D03*
X183625000Y-93300000D03*
X183625000Y-93950000D03*
D23*
X186500000Y-91675000D03*
%TD*%
D43*
%TO.C,U36*%
X228505000Y-67125000D03*
D44*
X226225000Y-73425000D03*
D43*
X223945000Y-67125000D03*
%TD*%
D31*
%TO.C,J18*%
X133300000Y-119950000D03*
D32*
X129600000Y-116450000D03*
X129600000Y-124450000D03*
D31*
X125900000Y-119950000D03*
%TD*%
D33*
%TO.C,D26*%
X180517800Y-119684800D03*
X183817800Y-119684800D03*
%TD*%
D20*
%TO.C,R2*%
X207580000Y-97575000D03*
X208600000Y-97575000D03*
%TD*%
D30*
%TO.C,R89*%
X136860000Y-89350000D03*
X135840000Y-89350000D03*
%TD*%
%TO.C,R73*%
X156593000Y-134199000D03*
X155573000Y-134199000D03*
%TD*%
D20*
%TO.C,R7*%
X134872000Y-74270000D03*
X135892000Y-74270000D03*
%TD*%
D24*
%TO.C,D3*%
X140680000Y-74970000D03*
X137380000Y-74970000D03*
%TD*%
D45*
%TO.C,D9*%
X230675000Y-47600000D03*
X230675000Y-44300000D03*
%TD*%
D28*
%TO.C,U11*%
X185385000Y-108200000D03*
X186655000Y-108200000D03*
X187925000Y-108200000D03*
X189195000Y-108200000D03*
X189195000Y-103250000D03*
X187925000Y-103250000D03*
X186655000Y-103250000D03*
X185385000Y-103250000D03*
%TD*%
D33*
%TO.C,D18*%
X154686000Y-129794000D03*
X157986000Y-129794000D03*
%TD*%
D46*
%TO.C,U31*%
X227000000Y-114790000D03*
X227000000Y-113520000D03*
X227000000Y-112250000D03*
X227000000Y-110980000D03*
X227000000Y-109710000D03*
X227000000Y-108440000D03*
X227000000Y-107170000D03*
X227000000Y-105900000D03*
X219900000Y-105900000D03*
X219900000Y-107170000D03*
X219900000Y-108440000D03*
X219900000Y-109710000D03*
X219900000Y-110980000D03*
X219900000Y-112250000D03*
X219900000Y-113520000D03*
X219900000Y-114790000D03*
%TD*%
D34*
%TO.C,C53*%
X191075000Y-69050000D03*
X191075000Y-68090000D03*
%TD*%
D30*
%TO.C,R82*%
X143110000Y-101270000D03*
X142090000Y-101270000D03*
%TD*%
D42*
%TO.C,TR5*%
X229800000Y-51300000D03*
X229800000Y-50350000D03*
X229800000Y-49400000D03*
X227100000Y-49400000D03*
X227100000Y-50350000D03*
X227100000Y-51300000D03*
%TD*%
D34*
%TO.C,C47*%
X207100000Y-40250000D03*
X207100000Y-39290000D03*
%TD*%
%TO.C,C15*%
X143177500Y-49750000D03*
X143177500Y-48790000D03*
%TD*%
D14*
%TO.C,R46*%
X191090000Y-120750000D03*
X191090000Y-121770000D03*
%TD*%
D15*
%TO.C,R51*%
X182225000Y-103870000D03*
X182225000Y-102850000D03*
%TD*%
D30*
%TO.C,R16*%
X218920000Y-124520000D03*
X217900000Y-124520000D03*
%TD*%
D26*
%TO.C,U17*%
X136655000Y-78250000D03*
X136655000Y-79520000D03*
X136655000Y-80790000D03*
X136655000Y-82060000D03*
X141805000Y-82060000D03*
X141805000Y-80790000D03*
X141805000Y-79520000D03*
X141805000Y-78250000D03*
%TD*%
D29*
%TO.C,D23*%
X199900000Y-131300000D03*
X199900000Y-134600000D03*
%TD*%
D20*
%TO.C,R45*%
X179105000Y-133850000D03*
X180125000Y-133850000D03*
%TD*%
D33*
%TO.C,D30*%
X139750000Y-87690000D03*
X143050000Y-87690000D03*
%TD*%
D16*
%TO.C,C31*%
X190500000Y-117436000D03*
X190500000Y-118396000D03*
%TD*%
D14*
%TO.C,R48*%
X193125000Y-123015000D03*
X193125000Y-124035000D03*
%TD*%
D33*
%TO.C,D5*%
X135340000Y-59750000D03*
X138640000Y-59750000D03*
%TD*%
D20*
%TO.C,R15*%
X217900000Y-123270000D03*
X218920000Y-123270000D03*
%TD*%
%TO.C,R110*%
X165130000Y-110250000D03*
X166150000Y-110250000D03*
%TD*%
D31*
%TO.C,J9*%
X152050000Y-82450000D03*
D32*
X148350000Y-78950000D03*
X148350000Y-86950000D03*
D31*
X144650000Y-82450000D03*
%TD*%
D20*
%TO.C,R53*%
X186280000Y-119250000D03*
X187300000Y-119250000D03*
%TD*%
D14*
%TO.C,R12*%
X205115000Y-75180000D03*
X205115000Y-76200000D03*
%TD*%
D34*
%TO.C,C26*%
X183900000Y-131160000D03*
X183900000Y-130200000D03*
%TD*%
D17*
%TO.C,H1*%
X139100000Y-33250000D03*
%TD*%
D20*
%TO.C,R60*%
X217900000Y-125770000D03*
X218920000Y-125770000D03*
%TD*%
D18*
%TO.C,U12*%
X141370000Y-110540000D03*
X141370000Y-109270000D03*
X141370000Y-108000000D03*
X141370000Y-106730000D03*
X136420000Y-106730000D03*
X136420000Y-108000000D03*
X136420000Y-109270000D03*
X136420000Y-110540000D03*
%TD*%
D30*
%TO.C,R11*%
X206110000Y-73650000D03*
X205090000Y-73650000D03*
%TD*%
D19*
%TO.C,C74*%
X218985000Y-120575000D03*
X218025000Y-120575000D03*
%TD*%
D34*
%TO.C,C23*%
X172110000Y-79610000D03*
X172110000Y-78650000D03*
%TD*%
D15*
%TO.C,R91*%
X156210000Y-108762800D03*
X156210000Y-107742800D03*
%TD*%
D20*
%TO.C,R4*%
X139380000Y-92000000D03*
X140400000Y-92000000D03*
%TD*%
D16*
%TO.C,C32*%
X184060000Y-102815000D03*
X184060000Y-103775000D03*
%TD*%
D14*
%TO.C,R95*%
X205785000Y-39275000D03*
X205785000Y-40295000D03*
%TD*%
D15*
%TO.C,R96*%
X207085000Y-50305000D03*
X207085000Y-49285000D03*
%TD*%
D29*
%TO.C,D33*%
X219925000Y-89775000D03*
X219925000Y-93075000D03*
%TD*%
D34*
%TO.C,C78*%
X196400000Y-68575000D03*
X196400000Y-67615000D03*
%TD*%
D29*
%TO.C,D25*%
X197383400Y-127967200D03*
X197383400Y-131267200D03*
%TD*%
D15*
%TO.C,R100*%
X193500000Y-100970000D03*
X193500000Y-99950000D03*
%TD*%
D10*
%TO.C,RV7*%
X162750000Y-68890000D03*
X172350000Y-68890000D03*
D11*
X165050000Y-76390000D03*
D12*
X167550000Y-76390000D03*
X170050000Y-76390000D03*
%TD*%
D42*
%TO.C,TR1*%
X218850000Y-47050000D03*
X218850000Y-46100000D03*
X218850000Y-45150000D03*
X216150000Y-45150000D03*
X216150000Y-46100000D03*
X216150000Y-47050000D03*
%TD*%
D19*
%TO.C,C62*%
X224895000Y-64825000D03*
X223935000Y-64825000D03*
%TD*%
D31*
%TO.C,J3*%
X152050000Y-132450000D03*
D32*
X148350000Y-128950000D03*
X148350000Y-136950000D03*
D31*
X144650000Y-132450000D03*
%TD*%
D15*
%TO.C,R83*%
X196274000Y-40420000D03*
X196274000Y-39400000D03*
%TD*%
D16*
%TO.C,C11*%
X134477500Y-47090000D03*
X134477500Y-48050000D03*
%TD*%
D20*
%TO.C,R47*%
X191055000Y-122985000D03*
X192075000Y-122985000D03*
%TD*%
D18*
%TO.C,U37*%
X227300000Y-56920000D03*
X227300000Y-55650000D03*
X227300000Y-54380000D03*
X227300000Y-53110000D03*
X222350000Y-53110000D03*
X222350000Y-54380000D03*
X222350000Y-55650000D03*
X222350000Y-56920000D03*
%TD*%
D27*
%TO.C,U35*%
X196715000Y-117185000D03*
X197365000Y-117185000D03*
X198015000Y-117185000D03*
X198665000Y-117185000D03*
X199315000Y-117185000D03*
X199965000Y-117185000D03*
X200615000Y-117185000D03*
X201265000Y-117185000D03*
X201265000Y-111435000D03*
X200615000Y-111435000D03*
X199965000Y-111435000D03*
X199315000Y-111435000D03*
X198665000Y-111435000D03*
X198015000Y-111435000D03*
X197365000Y-111435000D03*
X196715000Y-111435000D03*
D23*
X198990000Y-114310000D03*
%TD*%
D21*
%TO.C,C33*%
X189750000Y-109940000D03*
X190710000Y-109940000D03*
%TD*%
D17*
%TO.C,H2*%
X158100000Y-33250000D03*
%TD*%
D15*
%TO.C,R57*%
X183950000Y-107550000D03*
X183950000Y-106530000D03*
%TD*%
D18*
%TO.C,U16*%
X203300000Y-81890000D03*
X203300000Y-80620000D03*
X203300000Y-79350000D03*
X203300000Y-78080000D03*
X198350000Y-78080000D03*
X198350000Y-79350000D03*
X198350000Y-80620000D03*
X198350000Y-81890000D03*
%TD*%
D14*
%TO.C,R62*%
X200385000Y-49315000D03*
X200385000Y-50335000D03*
%TD*%
D17*
%TO.C,H3*%
X194100000Y-135250000D03*
%TD*%
D45*
%TO.C,D34*%
X219950000Y-82600000D03*
X219950000Y-79300000D03*
%TD*%
D14*
%TO.C,R80*%
X139573000Y-128014000D03*
X139573000Y-129034000D03*
%TD*%
D20*
%TO.C,R86*%
X134670000Y-86000000D03*
X135690000Y-86000000D03*
%TD*%
D19*
%TO.C,C72*%
X196300000Y-94700000D03*
X195340000Y-94700000D03*
%TD*%
D15*
%TO.C,R93*%
X154750000Y-79710000D03*
X154750000Y-78690000D03*
%TD*%
%TO.C,R41*%
X182740000Y-131240000D03*
X182740000Y-130220000D03*
%TD*%
%TO.C,R44*%
X183500000Y-125798800D03*
X183500000Y-124778800D03*
%TD*%
%TO.C,R77*%
X140716000Y-129034000D03*
X140716000Y-128014000D03*
%TD*%
D47*
%TO.C,C38*%
X219350000Y-86100000D03*
X217350000Y-86100000D03*
%TD*%
D48*
%TO.C,RV1*%
X195703949Y-92296051D03*
X197500000Y-90500000D03*
X199296051Y-92296051D03*
%TD*%
%TO.C,RV6*%
X180378949Y-113153949D03*
X182175000Y-114950000D03*
X180378949Y-116746051D03*
%TD*%
%TO.C,RV4*%
X180375000Y-131900000D03*
X182171051Y-133696051D03*
X180375000Y-135492102D03*
%TD*%
%TO.C,RV2*%
X223007898Y-60400000D03*
X224803949Y-58603949D03*
X226600000Y-60400000D03*
%TD*%
%TO.C,RV5*%
X180378949Y-103903949D03*
X182175000Y-105700000D03*
X180378949Y-107496051D03*
%TD*%
D39*
%TO.C,J6*%
X225210000Y-92900000D03*
D49*
X227750000Y-92900000D03*
X225210000Y-90360000D03*
X227750000Y-90360000D03*
X225210000Y-87820000D03*
X227750000Y-87820000D03*
X225210000Y-85280000D03*
X227750000Y-85280000D03*
X225210000Y-82740000D03*
X227750000Y-82740000D03*
%TD*%
D47*
%TO.C,C39*%
X217350000Y-76025000D03*
X219350000Y-76025000D03*
%TD*%
D48*
%TO.C,RV3*%
X226396051Y-32853949D03*
X224600000Y-34650000D03*
X222803949Y-32853949D03*
%TD*%
M02*
