%TF.GenerationSoftware,KiCad,Pcbnew,7.0.10*%
%TF.CreationDate,2024-04-12T22:07:13+02:00*%
%TF.ProjectId,L235-Analog-Processor,4c323335-2d41-46e6-916c-6f672d50726f,rev?*%
%TF.SameCoordinates,Original*%
%TF.FileFunction,Soldermask,Bot*%
%TF.FilePolarity,Negative*%
%FSLAX46Y46*%
G04 Gerber Fmt 4.6, Leading zero omitted, Abs format (unit mm)*
G04 Created by KiCad (PCBNEW 7.0.10) date 2024-04-12 22:07:13*
%MOMM*%
%LPD*%
G01*
G04 APERTURE LIST*
%ADD10O,2.720000X3.240000*%
%ADD11R,1.800000X1.800000*%
%ADD12C,1.800000*%
%ADD13C,3.200000*%
%ADD14C,1.600000*%
%ADD15R,1.500000X3.000000*%
%ADD16R,3.000000X1.500000*%
%ADD17R,1.700000X1.700000*%
%ADD18O,1.700000X1.700000*%
%ADD19C,1.200000*%
%ADD20C,1.260000*%
%ADD21C,1.700000*%
G04 APERTURE END LIST*
D10*
%TO.C,RV10*%
X143800000Y-36750000D03*
X153400000Y-36750000D03*
D11*
X146100000Y-44250000D03*
D12*
X148600000Y-44250000D03*
X151100000Y-44250000D03*
%TD*%
D13*
%TO.C,H1*%
X194100000Y-33250000D03*
%TD*%
D14*
%TO.C,C7*%
X191950000Y-108150000D03*
X191950000Y-103150000D03*
%TD*%
D15*
%TO.C,J11*%
X152050000Y-94950000D03*
D16*
X148350000Y-91450000D03*
X148350000Y-99450000D03*
D15*
X144650000Y-94950000D03*
%TD*%
%TO.C,J4*%
X152050000Y-119950000D03*
D16*
X148350000Y-116450000D03*
X148350000Y-124450000D03*
D15*
X144650000Y-119950000D03*
%TD*%
%TO.C,J2*%
X152300000Y-53700000D03*
D16*
X148600000Y-50200000D03*
X148600000Y-58200000D03*
D15*
X144900000Y-53700000D03*
%TD*%
%TO.C,J12*%
X171300000Y-53700000D03*
D16*
X167600000Y-50200000D03*
X167600000Y-58200000D03*
D15*
X163900000Y-53700000D03*
%TD*%
%TO.C,J17*%
X133300000Y-82450000D03*
D16*
X129600000Y-78950000D03*
X129600000Y-86950000D03*
D15*
X125900000Y-82450000D03*
%TD*%
D10*
%TO.C,RV9*%
X124800000Y-36750000D03*
X134400000Y-36750000D03*
D11*
X127100000Y-44250000D03*
D12*
X129600000Y-44250000D03*
X132100000Y-44250000D03*
%TD*%
D15*
%TO.C,J7*%
X152050000Y-69950000D03*
D16*
X148350000Y-66450000D03*
X148350000Y-74450000D03*
D15*
X144650000Y-69950000D03*
%TD*%
%TO.C,J13*%
X171300000Y-116950000D03*
D16*
X167600000Y-113450000D03*
X167600000Y-121450000D03*
D15*
X163900000Y-116950000D03*
%TD*%
%TO.C,J8*%
X152050000Y-107450000D03*
D16*
X148350000Y-103950000D03*
X148350000Y-111950000D03*
D15*
X144650000Y-107450000D03*
%TD*%
D10*
%TO.C,RV11*%
X162800000Y-36750000D03*
X172400000Y-36750000D03*
D11*
X165100000Y-44250000D03*
D12*
X167600000Y-44250000D03*
X170100000Y-44250000D03*
%TD*%
D15*
%TO.C,J5*%
X133300000Y-132450000D03*
D16*
X129600000Y-128950000D03*
X129600000Y-136950000D03*
D15*
X125900000Y-132450000D03*
%TD*%
%TO.C,J10*%
X133300000Y-107450000D03*
D16*
X129600000Y-103950000D03*
X129600000Y-111950000D03*
D15*
X125900000Y-107450000D03*
%TD*%
%TO.C,J15*%
X133300000Y-94950000D03*
D16*
X129600000Y-91450000D03*
X129600000Y-99450000D03*
D15*
X125900000Y-94950000D03*
%TD*%
D13*
%TO.C,H2*%
X213100000Y-33250000D03*
%TD*%
D15*
%TO.C,J16*%
X133300000Y-69950000D03*
D16*
X129600000Y-66450000D03*
X129600000Y-74450000D03*
D15*
X125900000Y-69950000D03*
%TD*%
D10*
%TO.C,RV8*%
X172400000Y-132475000D03*
X162800000Y-132475000D03*
D11*
X170100000Y-124975000D03*
D12*
X167600000Y-124975000D03*
X165100000Y-124975000D03*
%TD*%
D17*
%TO.C,J19*%
X213100000Y-56220000D03*
D18*
X213100000Y-58760000D03*
X213100000Y-61300000D03*
X213100000Y-63840000D03*
X213100000Y-66380000D03*
X213100000Y-68920000D03*
X213100000Y-71460000D03*
X213100000Y-74000000D03*
X213100000Y-76540000D03*
X213100000Y-79080000D03*
X213100000Y-81620000D03*
X213100000Y-84160000D03*
X213100000Y-86700000D03*
X213100000Y-89240000D03*
X213100000Y-91780000D03*
X213100000Y-94320000D03*
X213100000Y-96860000D03*
X213100000Y-99400000D03*
X213100000Y-101940000D03*
X213100000Y-104480000D03*
%TD*%
D14*
%TO.C,C3*%
X170100000Y-86000000D03*
X165100000Y-86000000D03*
%TD*%
D13*
%TO.C,H3*%
X139100000Y-135250000D03*
%TD*%
D17*
%TO.C,J14*%
X158100000Y-56220000D03*
D18*
X158100000Y-58760000D03*
X158100000Y-61300000D03*
X158100000Y-63840000D03*
X158100000Y-66380000D03*
X158100000Y-68920000D03*
X158100000Y-71460000D03*
X158100000Y-74000000D03*
X158100000Y-76540000D03*
X158100000Y-79080000D03*
X158100000Y-81620000D03*
X158100000Y-84160000D03*
X158100000Y-86700000D03*
X158100000Y-89240000D03*
X158100000Y-91780000D03*
X158100000Y-94320000D03*
X158100000Y-96860000D03*
X158100000Y-99400000D03*
X158100000Y-101940000D03*
X158100000Y-104480000D03*
%TD*%
D10*
%TO.C,RV12*%
X162800000Y-100975000D03*
X172400000Y-100975000D03*
D11*
X165100000Y-108475000D03*
D12*
X167600000Y-108475000D03*
X170100000Y-108475000D03*
%TD*%
D15*
%TO.C,J1*%
X133300000Y-53700000D03*
D16*
X129600000Y-50200000D03*
X129600000Y-58200000D03*
D15*
X125900000Y-53700000D03*
%TD*%
D11*
%TO.C,D24*%
X135325000Y-129000000D03*
D12*
X137865000Y-129000000D03*
%TD*%
D15*
%TO.C,J18*%
X133300000Y-119950000D03*
D16*
X129600000Y-116450000D03*
X129600000Y-124450000D03*
D15*
X125900000Y-119950000D03*
%TD*%
%TO.C,J9*%
X152050000Y-82450000D03*
D16*
X148350000Y-78950000D03*
X148350000Y-86950000D03*
D15*
X144650000Y-82450000D03*
%TD*%
D13*
%TO.C,H1*%
X139100000Y-33250000D03*
%TD*%
D10*
%TO.C,RV7*%
X162750000Y-68890000D03*
X172350000Y-68890000D03*
D11*
X165050000Y-76390000D03*
D12*
X167550000Y-76390000D03*
X170050000Y-76390000D03*
%TD*%
D15*
%TO.C,J3*%
X152050000Y-132450000D03*
D16*
X148350000Y-128950000D03*
X148350000Y-136950000D03*
D15*
X144650000Y-132450000D03*
%TD*%
D13*
%TO.C,H2*%
X158100000Y-33250000D03*
%TD*%
%TO.C,H3*%
X194100000Y-135250000D03*
%TD*%
D19*
%TO.C,C38*%
X219350000Y-86100000D03*
X217350000Y-86100000D03*
%TD*%
D20*
%TO.C,RV1*%
X195703949Y-92296051D03*
X197500000Y-90500000D03*
X199296051Y-92296051D03*
%TD*%
%TO.C,RV6*%
X180378949Y-113153949D03*
X182175000Y-114950000D03*
X180378949Y-116746051D03*
%TD*%
%TO.C,RV4*%
X180375000Y-131900000D03*
X182171051Y-133696051D03*
X180375000Y-135492102D03*
%TD*%
%TO.C,RV2*%
X223007898Y-60400000D03*
X224803949Y-58603949D03*
X226600000Y-60400000D03*
%TD*%
%TO.C,RV5*%
X180378949Y-103903949D03*
X182175000Y-105700000D03*
X180378949Y-107496051D03*
%TD*%
D17*
%TO.C,J6*%
X225210000Y-92900000D03*
D21*
X227750000Y-92900000D03*
X225210000Y-90360000D03*
X227750000Y-90360000D03*
X225210000Y-87820000D03*
X227750000Y-87820000D03*
X225210000Y-85280000D03*
X227750000Y-85280000D03*
X225210000Y-82740000D03*
X227750000Y-82740000D03*
%TD*%
D19*
%TO.C,C39*%
X217350000Y-76025000D03*
X219350000Y-76025000D03*
%TD*%
D20*
%TO.C,RV3*%
X226396051Y-32853949D03*
X224600000Y-34650000D03*
X222803949Y-32853949D03*
%TD*%
M02*
