M48
; DRILL file {KiCad 7.0.10} date Friday, April 12, 2024 at 10:07:16 PM
; FORMAT={-:-/ absolute / metric / decimal}
; #@! TF.CreationDate,2024-04-12T22:07:16+02:00
; #@! TF.GenerationSoftware,Kicad,Pcbnew,7.0.10
; #@! TF.FileFunction,Plated,1,2,PTH
FMAT,2
METRIC
; #@! TA.AperFunction,Plated,PTH,ViaDrill
T1C0.400
; #@! TA.AperFunction,Plated,PTH,ComponentDrill
T2C0.600
; #@! TA.AperFunction,Plated,PTH,ComponentDrill
T3C0.700
; #@! TA.AperFunction,Plated,PTH,ComponentDrill
T4C0.800
; #@! TA.AperFunction,Plated,PTH,ComponentDrill
T5C0.900
; #@! TA.AperFunction,Plated,PTH,ComponentDrill
T6C1.000
; #@! TA.AperFunction,Plated,PTH,ComponentDrill
T7C1.100
%
G90
G05
T1
X131.76Y-62.67
X132.4Y-47.05
X132.7Y-91.75
X132.8Y-75.7
X133.477Y-48.05
X134.4Y-90.15
X134.87Y-82.32
X134.874Y-70.104
X135.568Y-98.838
X135.9Y-54.85
X136.45Y-111.9
X137.132Y-62.992
X137.6Y-99.854
X138.303Y-127.127
X138.85Y-110.9
X138.95Y-118.5
X139.477Y-42.728
X140.11Y-63.29
X141.44Y-41.85
X141.6Y-90.95
X141.85Y-83.55
X141.965Y-69.47
X142.426Y-98.33
X142.49Y-54.98
X143.002Y-115.316
X143.07Y-119.84
X143.1Y-106.75
X143.177Y-50.95
X143.39Y-77.76
X143.4Y-104.75
X143.7Y-91.95
X144.78Y-116.586
X144.875Y-60.575
X145.84Y-72.49
X145.872Y-78.765
X148.0Y-47.8
X149.07Y-61.87
X152.1Y-125.825
X152.146Y-117.094
X152.65Y-103.125
X153.8Y-40.65
X154.483Y-131.572
X154.559Y-111.252
X154.686Y-114.808
X154.73Y-81.09
X155.194Y-122.174
X155.701Y-129.794
X156.21Y-109.779
X158.015Y-134.159
X160.274Y-135.255
X161.544Y-125.984
X162.3Y-105.791
X162.73Y-88.01
X163.15Y-80.85
X165.72Y-59.67
X168.402Y-136.169
X170.1Y-78.25
X172.65Y-82.45
X172.675Y-87.55
X173.19Y-78.7
X179.3Y-54.85
X179.3Y-62.55
X179.3Y-69.55
X179.3Y-76.55
X179.3Y-83.65
X179.3Y-90.85
X179.4Y-94.55
X179.7Y-118.4
X180.1Y-43.5
X180.125Y-61.6
X180.15Y-53.85
X180.175Y-75.625
X180.175Y-82.675
X180.2Y-68.625
X180.2Y-89.875
X180.3Y-93.75
X180.526Y-100.0
X180.975Y-60.95
X181.15Y-74.975
X181.2Y-44.2
X181.2Y-53.175
X181.3Y-67.975
X181.3Y-89.2
X181.3Y-93.05
X181.325Y-82.0
X181.8Y-118.15
X182.0Y-101.85
X182.118Y-122.936
X182.2Y-45.65
X182.25Y-94.0
X182.375Y-111.575
X182.45Y-125.5
X182.6Y-39.75
X183.1Y-103.26
X183.574Y-87.805
X183.575Y-80.88
X183.6Y-66.8
X183.6Y-73.65
X183.8Y-58.82
X183.9Y-121.75
X184.07Y-104.69
X185.2Y-129.3
X185.24Y-86.72
X185.25Y-95.028
X185.375Y-132.75
X185.41Y-75.03
X185.504Y-123.425
X185.8Y-68.2
X185.8Y-82.2
X185.86Y-110.014
X185.95Y-125.2
X186.6Y-58.9
X187.11Y-89.5
X187.2Y-82.205
X187.25Y-74.06
X187.4Y-123.4
X187.9Y-53.35
X187.9Y-115.6
X187.92Y-66.81
X188.0Y-58.9
X188.349Y-49.714
X188.83Y-110.0
X189.416Y-95.536
X190.36Y-102.04
X190.48Y-116.56
X190.5Y-112.825
X190.55Y-134.35
X190.7Y-65.85
X190.77Y-75.15
X190.81Y-70.06
X190.84Y-90.04
X190.89Y-95.85
X190.925Y-79.925
X190.95Y-99.5
X190.96Y-63.99
X191.0Y-86.05
X191.042Y-52.407
X191.44Y-130.252
X191.448Y-118.65
X191.9Y-93.45
X191.99Y-68.08
X192.0Y-136.95
X192.065Y-61.3
X192.7Y-76.25
X193.165Y-125.035
X193.3Y-55.275
X193.3Y-71.83
X193.305Y-57.32
X193.37Y-60.53
X193.45Y-82.875
X193.6Y-53.75
X193.7Y-92.55
X193.74Y-44.89
X193.815Y-118.735
X194.0Y-39.4
X194.4Y-97.9
X194.43Y-78.14
X194.5Y-121.45
X194.525Y-80.725
X194.7Y-62.15
X194.7Y-75.15
X194.7Y-109.7
X194.9Y-65.85
X195.125Y-107.05
X195.28Y-68.53
X195.335Y-49.054
X195.95Y-107.95
X196.39Y-78.203
X196.6Y-52.45
X196.665Y-123.4
X197.15Y-39.4
X197.39Y-94.774
X197.865Y-109.635
X197.99Y-118.62
X198.052Y-93.504
X198.052Y-103.75
X198.25Y-82.94
X198.38Y-69.67
X199.1Y-62.25
X199.1Y-104.55
X199.8Y-108.71
X199.89Y-94.774
X200.385Y-45.585
X200.4Y-107.852
X200.6Y-88.65
X201.025Y-78.175
X201.1Y-103.55
X201.2Y-107.05
X201.285Y-118.635
X201.3Y-80.05
X202.85Y-69.625
X202.9Y-61.85
X203.6Y-105.65
X203.6Y-109.65
X204.225Y-61.275
X204.5Y-102.35
X204.76Y-39.26
X204.8Y-120.35
X204.925Y-97.525
X204.95Y-77.125
X205.13Y-63.75
X206.1Y-70.25
X206.45Y-98.95
X206.7Y-108.7
X207.085Y-44.635
X207.21Y-54.56
X207.3Y-107.852
X208.1Y-106.95
X208.1Y-115.85
X208.325Y-51.275
X208.335Y-44.61
X208.51Y-39.73
X208.53Y-96.13
X208.9Y-59.83
X209.5Y-118.65
X209.57Y-62.17
X209.6Y-111.45
X209.69Y-53.51
X209.7Y-75.95
X210.575Y-49.3
X210.68Y-65.02
X210.7Y-75.3
X211.4Y-109.75
X212.24Y-120.77
X212.75Y-46.15
X213.95Y-108.7
X214.625Y-107.875
X214.65Y-46.15
X215.275Y-107.025
X215.35Y-115.5
X215.35Y-119.675
X217.05Y-123.275
X217.35Y-46.15
X217.35Y-51.4
X217.4Y-52.91
X217.85Y-127.7
X217.875Y-134.675
X218.0Y-119.625
X218.3Y-39.05
X218.3Y-44.15
X218.79Y-48.21
X218.925Y-132.775
X218.992Y-41.135
X219.03Y-61.85
X220.35Y-36.4
X220.35Y-49.4
X220.942Y-65.185
X221.55Y-108.8
X221.75Y-48.8
X221.9Y-116.45
X221.925Y-114.775
X222.4Y-106.85
X222.45Y-125.72
X223.16Y-133.72
X223.4Y-120.52
X223.425Y-132.46
X223.96Y-108.236
X224.0Y-69.5
X224.025Y-36.95
X224.06Y-39.97
X224.062Y-47.174
X224.468Y-109.76
X225.35Y-53.65
X225.65Y-47.9
X225.95Y-63.02
X226.271Y-41.866
X226.3Y-66.7
X227.85Y-134.7
X227.9Y-120.62
X228.015Y-132.48
X228.5Y-115.55
X228.875Y-117.725
X228.95Y-122.87
X229.05Y-35.02
X229.292Y-44.95
X229.35Y-52.65
X229.55Y-38.3
X231.2Y-40.25
T2
X217.35Y-76.025
X217.35Y-86.1
X219.35Y-76.025
X219.35Y-86.1
T3
X180.375Y-131.9
X180.375Y-135.492
X180.379Y-103.904
X180.379Y-107.496
X180.379Y-113.154
X180.379Y-116.746
X182.171Y-133.696
X182.175Y-105.7
X182.175Y-114.95
X195.704Y-92.296
X197.5Y-90.5
X199.296Y-92.296
X222.804Y-32.854
X223.008Y-60.4
X224.6Y-34.65
X224.804Y-58.604
X226.396Y-32.854
X226.6Y-60.4
T4
X165.1Y-86.0
X170.1Y-86.0
X191.95Y-103.15
X191.95Y-108.15
T5
X135.325Y-129.0
X137.865Y-129.0
T6
X127.1Y-44.25
X129.6Y-44.25
X132.1Y-44.25
X146.1Y-44.25
X148.6Y-44.25
X151.1Y-44.25
X158.1Y-56.22
X158.1Y-58.76
X158.1Y-61.3
X158.1Y-63.84
X158.1Y-66.38
X158.1Y-68.92
X158.1Y-71.46
X158.1Y-74.0
X158.1Y-76.54
X158.1Y-79.08
X158.1Y-81.62
X158.1Y-84.16
X158.1Y-86.7
X158.1Y-89.24
X158.1Y-91.78
X158.1Y-94.32
X158.1Y-96.86
X158.1Y-99.4
X158.1Y-101.94
X158.1Y-104.48
X165.05Y-76.39
X165.1Y-44.25
X165.1Y-108.475
X165.1Y-124.975
X167.55Y-76.39
X167.6Y-44.25
X167.6Y-108.475
X167.6Y-124.975
X170.05Y-76.39
X170.1Y-44.25
X170.1Y-108.475
X170.1Y-124.975
X213.1Y-56.22
X213.1Y-58.76
X213.1Y-61.3
X213.1Y-63.84
X213.1Y-66.38
X213.1Y-68.92
X213.1Y-71.46
X213.1Y-74.0
X213.1Y-76.54
X213.1Y-79.08
X213.1Y-81.62
X213.1Y-84.16
X213.1Y-86.7
X213.1Y-89.24
X213.1Y-91.78
X213.1Y-94.32
X213.1Y-96.86
X213.1Y-99.4
X213.1Y-101.94
X213.1Y-104.48
X225.21Y-82.74
X225.21Y-85.28
X225.21Y-87.82
X225.21Y-90.36
X225.21Y-92.9
X227.75Y-82.74
X227.75Y-85.28
X227.75Y-87.82
X227.75Y-90.36
X227.75Y-92.9
T4
X125.9Y-54.55G85X125.9Y-52.85
G05
X125.9Y-70.8G85X125.9Y-69.1
G05
X125.9Y-83.3G85X125.9Y-81.6
G05
X125.9Y-95.8G85X125.9Y-94.1
G05
X125.9Y-108.3G85X125.9Y-106.6
G05
X125.9Y-120.8G85X125.9Y-119.1
G05
X125.9Y-133.3G85X125.9Y-131.6
G05
X128.75Y-50.2G85X130.45Y-50.2
G05
X128.75Y-58.2G85X130.45Y-58.2
G05
X128.75Y-66.45G85X130.45Y-66.45
G05
X128.75Y-74.45G85X130.45Y-74.45
G05
X128.75Y-78.95G85X130.45Y-78.95
G05
X128.75Y-86.95G85X130.45Y-86.95
G05
X128.75Y-91.45G85X130.45Y-91.45
G05
X128.75Y-99.45G85X130.45Y-99.45
G05
X128.75Y-103.95G85X130.45Y-103.95
G05
X128.75Y-111.95G85X130.45Y-111.95
G05
X128.75Y-116.45G85X130.45Y-116.45
G05
X128.75Y-124.45G85X130.45Y-124.45
G05
X128.75Y-128.95G85X130.45Y-128.95
G05
X128.75Y-136.95G85X130.45Y-136.95
G05
X133.3Y-54.55G85X133.3Y-52.85
G05
X133.3Y-70.8G85X133.3Y-69.1
G05
X133.3Y-83.3G85X133.3Y-81.6
G05
X133.3Y-95.8G85X133.3Y-94.1
G05
X133.3Y-108.3G85X133.3Y-106.6
G05
X133.3Y-120.8G85X133.3Y-119.1
G05
X133.3Y-133.3G85X133.3Y-131.6
G05
X144.65Y-70.8G85X144.65Y-69.1
G05
X144.65Y-83.3G85X144.65Y-81.6
G05
X144.65Y-95.8G85X144.65Y-94.1
G05
X144.65Y-108.3G85X144.65Y-106.6
G05
X144.65Y-120.8G85X144.65Y-119.1
G05
X144.65Y-133.3G85X144.65Y-131.6
G05
X144.9Y-54.55G85X144.9Y-52.85
G05
X147.5Y-66.45G85X149.2Y-66.45
G05
X147.5Y-74.45G85X149.2Y-74.45
G05
X147.5Y-78.95G85X149.2Y-78.95
G05
X147.5Y-86.95G85X149.2Y-86.95
G05
X147.5Y-91.45G85X149.2Y-91.45
G05
X147.5Y-99.45G85X149.2Y-99.45
G05
X147.5Y-103.95G85X149.2Y-103.95
G05
X147.5Y-111.95G85X149.2Y-111.95
G05
X147.5Y-116.45G85X149.2Y-116.45
G05
X147.5Y-124.45G85X149.2Y-124.45
G05
X147.5Y-128.95G85X149.2Y-128.95
G05
X147.5Y-136.95G85X149.2Y-136.95
G05
X147.75Y-50.2G85X149.45Y-50.2
G05
X147.75Y-58.2G85X149.45Y-58.2
G05
X152.05Y-70.8G85X152.05Y-69.1
G05
X152.05Y-83.3G85X152.05Y-81.6
G05
X152.05Y-95.8G85X152.05Y-94.1
G05
X152.05Y-108.3G85X152.05Y-106.6
G05
X152.05Y-120.8G85X152.05Y-119.1
G05
X152.05Y-133.3G85X152.05Y-131.6
G05
X152.3Y-54.55G85X152.3Y-52.85
G05
X163.9Y-54.55G85X163.9Y-52.85
G05
X163.9Y-117.8G85X163.9Y-116.1
G05
X166.75Y-50.2G85X168.45Y-50.2
G05
X166.75Y-58.2G85X168.45Y-58.2
G05
X166.75Y-113.45G85X168.45Y-113.45
G05
X166.75Y-121.45G85X168.45Y-121.45
G05
X171.3Y-54.55G85X171.3Y-52.85
G05
X171.3Y-117.8G85X171.3Y-116.1
G05
T7
X124.8Y-37.1G85X124.8Y-36.4
G05
X134.4Y-37.1G85X134.4Y-36.4
G05
X143.8Y-37.1G85X143.8Y-36.4
G05
X153.4Y-37.1G85X153.4Y-36.4
G05
X162.75Y-69.24G85X162.75Y-68.54
G05
X162.8Y-37.1G85X162.8Y-36.4
G05
X162.8Y-101.325G85X162.8Y-100.625
G05
X162.8Y-132.125G85X162.8Y-132.825
G05
X172.35Y-69.24G85X172.35Y-68.54
G05
X172.4Y-37.1G85X172.4Y-36.4
G05
X172.4Y-101.325G85X172.4Y-100.625
G05
X172.4Y-132.125G85X172.4Y-132.825
G05
M30
